<svg width="658" height="574" viewBox="0 0 658 574" fill="none" xmlns="http://www.w3.org/2000/svg">
<g clip-path="url(#clip0_317_6599)">
<g filter="url(#filter0_f_317_6599)">
<path d="M438.497 409.118C526.889 316.862 526.889 167.285 438.497 75.0289C350.105 -17.2271 206.793 -17.2271 118.401 75.0289C30.0094 167.285 30.0094 316.862 118.401 409.118C206.793 501.374 350.105 501.374 438.497 409.118Z" fill="url(#paint0_linear_317_6599)" fill-opacity="0.1"/>
</g>
<path d="M112.076 226.965C108.413 220.751 103.039 215.833 96.658 212.854L93.227 214.515L100.965 229.159C100.34 232.525 98.679 235.586 96.234 237.876C92.982 238.366 89.665 237.734 86.787 236.078L80.947 220.488L77.501 222.165C75.6127 229.177 75.785 236.584 77.997 243.499C77.997 243.499 79.457 247.02 79.705 247.34C81.078 248.985 84.611 250.905 91.473 250.464L115.17 297.659C113.842 300.038 113.277 302.797 113.557 305.535C113.837 308.273 114.947 310.845 116.726 312.878C118.505 314.911 120.859 316.297 123.446 316.836C126.033 317.375 128.717 317.037 131.107 315.873C133.497 314.709 135.468 312.777 136.733 310.361C138.001 307.928 138.492 305.165 138.14 302.443C137.789 299.714 136.612 297.174 134.781 295.192C132.95 293.21 130.56 291.891 127.96 291.426L108.541 242.28C113.155 237.19 114.133 233.137 113.783 230.866C113.278 229.536 112.708 228.234 112.074 226.965H112.076ZM131.525 308.204L125.261 311.253L119.596 307.122L120.194 299.93L126.458 296.882L132.123 301.012L131.525 308.204V308.204Z" fill="url(#paint1_linear_317_6599)"/>
<path d="M113.785 230.807C110.132 224.585 104.762 219.661 98.3814 216.681L94.9504 218.357L102.674 232.986C102.06 236.357 100.397 239.421 97.9444 241.703C94.6808 242.191 91.3483 241.551 88.4974 239.89L82.6574 224.315L79.2264 225.992C77.3374 232.993 77.5044 240.426 79.7084 247.326C79.7084 247.326 85.0674 254.809 93.1854 254.275L116.853 301.395C115.532 303.773 114.973 306.528 115.257 309.261C115.541 311.994 116.654 314.56 118.432 316.587C120.21 318.614 122.563 319.995 125.147 320.529C127.731 321.063 130.409 320.724 132.794 319.559C135.179 318.394 137.146 316.464 138.407 314.052C139.668 311.64 140.159 308.869 139.808 306.145C139.457 303.421 138.281 300.885 136.452 298.907C134.623 296.929 132.239 295.612 129.643 295.147L110.209 246.016C115.86 239.89 113.787 230.807 113.787 230.807H113.785ZM133.247 312.047L126.984 315.095L121.319 310.965L121.917 303.772L128.181 300.724L133.846 304.869L133.247 312.047Z" fill="url(#paint2_linear_317_6599)"/>
<path d="M80.9729 220.467L77.5469 222.138L79.2649 225.976L82.6909 224.305L80.9729 220.467ZM96.6459 212.854L93.2199 214.524L94.9379 218.363L98.3639 216.692L96.6459 212.854ZM131.532 308.209L125.262 311.267L126.98 315.105L133.25 312.048L131.532 308.209V308.209Z" fill="#E5E2FF"/>
<path d="M98.293 257.826L117.405 296.137C118.888 296.192 120.363 295.88 121.696 295.228C123.037 294.573 124.209 293.595 125.115 292.373L109.565 252.31C107.408 252.316 105.28 252.813 103.343 253.764C101.396 254.717 99.672 256.104 98.293 257.826ZM123.611 292.708C122.863 293.383 122.033 293.952 121.143 294.4C120.305 294.807 119.415 295.084 118.5 295.223L99.373 257.674C100.76 256.407 102.308 255.345 103.973 254.519C105.462 253.787 107.059 253.298 108.703 253.072L123.611 292.708Z" fill="url(#paint3_linear_317_6599)"/>
<path d="M123.61 292.708L125.071 292.388C124.236 293.688 123.077 294.726 121.718 295.39C120.359 296.054 118.853 296.317 117.361 296.152L118.486 295.222C120.384 294.894 122.158 294.024 123.61 292.708Z" fill="#E5E2FF"/>
<path style="mix-blend-mode:multiply" opacity="0.62" d="M98.293 257.825L99.403 257.672C102.011 255.219 105.258 253.628 108.733 253.101L109.565 252.354C107.412 252.335 105.282 252.819 103.331 253.771C101.38 254.723 99.659 256.118 98.293 257.855V257.825Z" fill="url(#paint4_linear_317_6599)"/>
<path style="mix-blend-mode:multiply" opacity="0.62" d="M93.2266 254.321C99.4236 252.936 105.242 250.113 110.251 246.062L112.733 252.34C112.733 252.34 109.915 249.429 103.739 252.066C96.5116 255.114 96.9056 261.209 96.9056 261.209L93.2266 254.321V254.321Z" fill="url(#paint5_linear_317_6599)"/>
<path style="mix-blend-mode:screen" opacity="0.5" d="M112.733 252.339C111.622 251.531 110.318 251.061 108.966 250.982L127.45 297.66L129.684 295.252L112.733 252.339V252.339Z" fill="url(#paint6_linear_317_6599)"/>
<path d="M112.733 252.341C112.733 252.341 110.806 258.574 116.369 261.484L112.733 252.341Z" fill="white"/>
<path d="M391.142 553.677H322.518C315.335 512.044 298.631 457.869 298.631 457.869C294.572 455.354 286.644 458.448 286.644 458.448L261.56 553.677H198.864C195.535 494.915 226.343 428.213 226.343 428.213C225.768 427.096 225.486 425.839 225.525 424.571C226.097 423.46 226.894 422.493 227.861 421.737C229.555 420.121 231.57 418.506 231.57 418.506L348.537 417.744C348.537 417.744 349.719 418.369 351.223 419.268C353.779 420.883 357.239 423.383 357.239 425.211C357.276 426.823 356.866 428.411 356.056 429.783V429.859C381.082 479.234 391.142 553.677 391.142 553.677V553.677Z" fill="url(#paint7_linear_317_6599)"/>
<path style="mix-blend-mode:screen" opacity="0.5" d="M256.942 510.901C265.336 472.923 260.726 439.387 246.646 435.997C232.566 432.607 214.346 460.646 205.952 498.624C197.558 536.602 202.167 570.139 216.248 573.529C230.329 576.919 248.548 548.88 256.942 510.901Z" fill="url(#paint8_radial_317_6599)"/>
<path style="mix-blend-mode:screen" opacity="0.5" d="M371.146 572.102C385.06 568.033 388.174 534.31 378.1 496.779C368.026 459.248 348.58 432.121 334.665 436.19C320.75 440.259 317.637 473.982 327.711 511.513C337.785 549.044 357.231 576.17 371.146 572.102Z" fill="url(#paint9_radial_317_6599)"/>
<path d="M253.442 553.678L252.727 553.556C260.699 504.486 280.965 463.326 281.154 462.914L281.242 462.808L286.411 458.099L286.878 458.678L281.782 463.341C280.862 465.292 261.253 505.69 253.442 553.678V553.678Z" fill="url(#paint10_linear_317_6599)"/>
<path d="M331.833 553.678C324.007 505.599 303.858 464.773 302.953 462.945L298.383 458.678L298.879 458.099L303.566 462.533C303.785 462.945 324.577 504.486 332.549 553.556L331.833 553.678Z" fill="url(#paint11_linear_317_6599)"/>
<path style="mix-blend-mode:multiply" opacity="0.76" d="M357.224 425.242C357.261 426.853 356.85 428.441 356.041 429.814V429.89C331.687 435.635 313.158 459.362 313.158 459.362C326.387 485.878 348.463 553.677 348.463 553.677H322.518C315.334 512.044 298.631 457.869 298.631 457.869C294.572 455.354 286.643 458.448 286.643 458.448L261.559 553.677H245.323C251.163 513.781 268.29 465.077 268.29 465.077C251.426 444.58 226.342 428.213 226.342 428.213L223.422 426.263L225.583 424.571C236.431 435.437 271.415 449.624 272.495 450.066L227.919 421.737C229.613 420.121 231.628 418.506 231.628 418.506L348.595 417.744C348.595 417.744 349.777 418.369 351.281 419.268L319.335 437.555L357.224 425.242Z" fill="url(#paint12_linear_317_6599)"/>
<path style="mix-blend-mode:multiply" opacity="0.76" d="M298.631 457.867L312.283 448.617L309.041 457.867L306.661 485.694L298.631 457.867Z" fill="url(#paint13_linear_317_6599)"/>
<path style="mix-blend-mode:multiply" opacity="0.76" d="M286.643 458.446L272.422 450.05L241.979 435.74L280.745 462.47L283.052 472.07L286.643 458.446Z" fill="url(#paint14_linear_317_6599)"/>
<path d="M325.775 172.167L325.936 173.173C325.271 176.086 324.462 178.965 323.512 181.798C321.375 188.392 318.309 194.617 314.416 200.268C313.23 202.002 311.901 203.624 310.444 205.114C289.142 198.135 278.644 176.389 274.614 165.493C274.605 165.437 274.605 165.381 274.614 165.325C273.84 163.283 273.329 161.637 273.008 160.57L272.643 159.245L272.905 158.681V158.605L273.927 156.319C276.325 150.824 278.278 145.13 279.768 139.297C280.804 135.304 281.359 132.226 281.622 130.595L281.812 129.3L291.74 134.771L325.95 153.667C325.483 156.66 325.239 159.687 325.22 162.719C325.22 164.624 325.22 166.331 325.352 167.779C325.454 169.546 325.629 170.948 325.76 171.863C325.751 171.964 325.756 172.067 325.775 172.167V172.167V172.167Z" fill="#FE9083"/>
<path d="M316.341 207.507C314.272 209.652 311.889 211.471 309.274 212.902L309.099 213.008L308.894 212.886C308.15 212.414 305.609 210.783 302.193 208.101C293.257 201.076 278.335 186.873 274.071 167.733C273.565 165.431 273.223 163.093 273.049 160.738C273.049 160.113 272.962 159.489 272.947 158.849C275.216 164.127 277.928 169.186 281.051 173.966C287.095 183.201 296.163 193.274 306.996 193.335C316.37 193.335 321.174 186.706 323.612 180.534C324.504 178.269 325.164 175.921 325.583 173.524L325.831 172.076C325.831 171.863 325.831 171.68 325.904 171.512C325.992 170.827 326.021 170.43 326.021 170.43C326.021 170.43 329.482 193.685 316.341 207.507V207.507Z" fill="url(#paint15_linear_317_6599)"/>
<path style="mix-blend-mode:multiply" opacity="0.5" d="M316.342 207.506C314.258 209.663 311.876 211.482 309.275 212.901H308.881C308.136 212.429 305.596 210.798 302.179 208.116C293.243 201.091 278.321 186.888 274.058 167.748C273.551 165.446 273.209 163.108 273.036 160.753C273.036 160.128 272.948 159.503 272.934 158.863C275.203 164.142 277.914 169.2 281.037 173.98C281.037 173.98 286.877 190.896 299.697 199.277C306.092 203.468 310.939 202.858 314.502 200.39C317.747 197.828 320.248 194.378 321.729 190.423C322.857 187.736 323.491 184.852 323.598 181.92V180.548C324.489 178.284 325.15 175.936 325.569 173.539C325.672 172.99 325.745 172.502 325.818 172.091C325.818 171.877 325.818 171.695 325.891 171.527C325.978 170.841 326.007 170.445 326.007 170.445C326.007 170.445 329.482 193.685 316.342 207.506V207.506Z" fill="url(#paint16_linear_317_6599)"/>
<path d="M398.281 345.71L398.048 345.832C396.85 345.985 393.127 345.131 388.25 340.727C384.162 336.994 379.256 330.761 374.365 320.551C364.582 300.145 361.779 286.522 361.327 284.144V283.779L355.618 293.227C351.748 305.418 344.419 355.631 344.55 357.795C344.681 359.959 351.048 370.504 350.916 371.8C350.741 373.11 347.879 375.99 347.062 379.13C346.507 381.217 350.391 387.801 353.121 392.723C354.218 394.398 355.065 396.238 355.632 398.178C355.632 400.48 348.711 411.741 348.711 411.741V417.837L348.609 417.944L348.288 418.248L348.025 418.477C345.397 420.641 334.257 427.727 299.448 429.678C258.201 431.979 230.722 418.126 230.722 418.126L232.796 412.198C232.796 412.198 230.868 410.476 230.722 409.608C230.576 408.74 232.182 406.712 232.182 406.712C232.182 406.712 228.036 404.411 228.036 401.516C228.036 398.621 236.344 389.69 236.066 382.025C235.788 374.36 229.423 367.594 228.591 363.266C227.759 358.938 239.381 348.255 239.381 348.255C229.423 315.339 227.481 271.161 227.481 271.161L225.422 268.707C225.422 268.707 213.523 297.006 202.733 310.859C201.448 312.504 200.09 314.135 198.688 315.705C195.765 318.996 192.665 322.124 189.402 325.077C181.926 331.873 175.137 336.338 173.414 335.988C170.64 335.409 159.573 312.596 160.084 289.204C160.317 278.079 166.742 265.629 173.414 255.678L175.575 252.539C179.118 247.509 182.94 242.701 187.022 238.138L188.351 236.69C188.351 236.69 186.891 231.585 185.796 227.15C185.778 227.042 185.754 226.935 185.723 226.83C185.729 226.78 185.729 226.728 185.723 226.678C185.726 226.642 185.726 226.607 185.723 226.571C185.109 223.843 184.73 221.481 185.08 220.902C186 219.378 191.358 217.626 192.278 216.483C193.198 215.34 197.067 195.88 200.017 193.761C202.967 191.642 207.828 190.256 224.429 183.445L226.955 182.408C245.571 174.713 263.837 165.371 263.837 165.371L270.845 156.38H273.97L272.948 158.666V158.742C273.444 161.058 274.014 163.314 274.656 165.401C274.648 165.457 274.648 165.513 274.656 165.569C284.22 197.297 309.041 207.522 309.041 207.522C326.27 194.249 325.934 173.173 325.934 173.173V170.278L329.161 171.284L331.366 176.77C331.366 176.77 335.103 182.865 349.909 189.632C352.69 190.932 355.404 192.381 358.041 193.975C371.591 202.006 386.659 214.426 387.812 217.062C387.977 217.488 388.109 217.926 388.207 218.373C389.798 224.895 393.069 249.323 396.106 257.994C397.39 262.03 399.876 265.533 403.202 267.991C404.071 268.638 405.025 269.152 406.034 269.515L406.691 273.492C413.072 315.369 401.026 343.729 398.281 345.71V345.71Z" fill="url(#paint17_linear_317_6599)"/>
<path style="mix-blend-mode:multiply" opacity="0.5" d="M239.381 266.83L227.35 271.052L225.422 268.705C225.422 268.705 213.523 297.004 202.733 310.856L198.688 315.702C195.759 319 192.659 322.129 189.402 325.074L180.233 283.822L175.575 252.506C179.118 247.476 182.94 242.668 187.022 238.105L188.351 236.657C188.351 236.657 186.891 231.552 185.796 227.117C185.778 227.009 185.754 226.902 185.723 226.797C185.73 226.747 185.73 226.696 185.723 226.645C185.727 226.61 185.727 226.574 185.723 226.538C185.11 223.81 184.73 221.448 185.08 220.869C186 219.345 191.359 217.593 192.279 216.45C193.199 215.307 197.068 195.847 200.017 193.729C200.017 193.729 198.09 212.396 208.325 236.078L213.304 243.393L227.904 255.584C227.904 255.584 233.351 263.31 239.381 266.83V266.83Z" fill="url(#paint18_linear_317_6599)"/>
<path d="M204.573 300.602C201.988 320.611 173.415 336.018 173.415 336.018C167.049 336.018 159.938 324.466 153.484 310.218C147.03 295.97 146.637 255.037 146.301 252.507C145.965 249.977 142.359 244.888 142.14 242.754C141.921 240.62 147.98 236.11 147.98 236.11V236.004V235.897C147.352 234.495 143.819 226.586 144.067 225.138C144.315 223.69 151.104 220.094 151.104 220.094L151.528 227.881C151.528 227.881 167.268 224.833 172.597 212.048L173.531 208.146L176.159 209.975V226.738C176.159 226.738 176.7 229.344 177.532 229.344C178.364 229.344 184.497 226.144 185.781 226.586C187.065 227.028 188.351 235.988 190.074 237.131C191.797 238.274 196.352 241.612 197.039 243.227C197.382 245.315 197.504 247.435 197.404 249.551C197.325 253.088 197.526 256.626 198.002 260.128C198.864 264.547 207.157 280.578 204.573 300.602V300.602Z" fill="url(#paint19_linear_317_6599)"/>
<path d="M465.912 283.457C464.627 285.575 458.174 290.01 456.509 291.747C454.844 293.484 456.509 299.169 456.509 299.169C439.683 317.917 420.01 333.641 398.281 345.709L398.048 345.831C381.023 333.883 382.483 314.21 388.134 297.63C391.867 287.125 396.935 277.192 403.202 268.096C405.962 266.89 408.867 266.05 411.845 265.597C412.998 265.57 414.125 265.936 415.043 266.633C417.116 267.974 418.868 270.093 420.562 269.209C423.059 267.898 428.636 254.137 432.418 253.756C435.061 253.497 438.725 256.301 441.178 257.901C442.244 258.602 443.077 259.075 443.485 258.953C444.945 258.572 449.574 252.69 449.954 252.537C450.334 252.384 452.465 254.061 452.465 254.061L451.005 256.012C452.474 264.434 455.865 272.363 460.89 279.129L465.956 271.388C465.956 271.388 467.212 281.339 465.912 283.457V283.457Z" fill="url(#paint20_linear_317_6599)"/>
<path d="M325.848 171.572C325.848 171.771 325.848 171.969 325.775 172.167C325.703 172.578 325.61 172.985 325.497 173.386C323.76 180.106 316.737 186.979 307.874 183.672C298.194 180.061 279.768 139.327 279.768 139.327L281.622 130.625L325.424 167.808L325.906 171.329L325.848 171.572V171.572Z" fill="#CB4D7A"/>
<path d="M180.233 164.121C180.233 164.121 177.561 148.715 178.773 137.362C179.434 129.283 179.332 121.16 178.466 113.101C177.743 112.788 176.962 112.626 176.174 112.626C175.386 112.626 174.606 112.788 173.882 113.101C171.94 114.259 167.428 126.008 169.501 135.441C171.574 144.874 169.969 167.444 169.969 167.444H166.917L160.274 157.919L157.047 156.944C157.047 156.944 138.475 175.231 138.752 186.111L141.176 195.788L164.055 194.965L178.934 177.273L180.233 164.121V164.121Z" fill="#EE8183"/>
<path d="M156.988 156.988C157.364 164.574 158.41 172.111 160.113 179.512C159.922 180.803 159.289 181.979 158.33 182.82C157.371 183.661 156.152 184.11 154.9 184.083L153.732 182.712C153.732 182.712 152.9 187.543 148.681 187.908L144.665 183.718L145.702 187.177C145.256 188.241 144.519 189.145 143.585 189.776C142.659 190.405 141.565 190.737 140.446 190.728C140.446 190.728 134.08 185.531 133.671 178.734L139.964 173.187V168.92L147.425 163.434L147.571 160.387C150.332 158.333 153.602 157.153 156.988 156.988V156.988Z" fill="url(#paint21_linear_317_6599)"/>
<path style="mix-blend-mode:multiply" opacity="0.6" d="M179.094 134.101C178.507 135.678 177.578 137.092 176.378 138.23C174.425 139.208 172.339 139.896 170.188 140.272L169.983 167.489H166.932L160.288 157.965C160.288 157.965 163.661 163.39 163.865 167.489L161.237 168.83L158.96 160.678L157.879 166.545L158.945 173.859C162.156 171.417 166.039 170.123 170.012 170.172L171.078 172.198C171.078 172.198 158.2 183.338 155.222 189.906C155.222 189.906 161.588 181.464 176.115 172.153L177.488 167.688L179.328 157.02C179.328 157.02 177.517 141.598 179.094 134.101V134.101Z" fill="url(#paint22_linear_317_6599)"/>
<path d="M189.826 181.54C188.628 185.289 176.086 200.878 174.699 204.261C173.74 206.783 172.997 209.389 172.48 212.048C166.318 226.038 151.353 227.882 151.353 227.882L150.666 215.325C150.666 215.325 142.651 210.509 141.293 207.873L141.132 207.431C140.929 203.583 140.929 199.727 141.132 195.88L155.163 189.952C161.252 181.723 176.057 172.198 176.057 172.198L176.743 167.886C166.114 162.43 167.895 145.926 169.691 143.899C171.111 142.615 172.923 141.901 174.801 141.888C174.801 141.888 178.685 155.161 181.167 161.379C183.649 167.597 191.023 177.791 189.826 181.54V181.54Z" fill="url(#paint23_linear_317_6599)"/>
<path d="M147.542 160.312C147.542 160.312 149.104 175.474 153.703 182.698C149.833 177.057 147.64 170.353 147.396 163.42L147.542 160.312ZM139.935 168.905C139.935 168.905 141.395 181.097 148.695 187.893C148.695 187.893 142.315 184.571 139.935 173.172V168.905Z" fill="#E28183"/>
<path style="mix-blend-mode:multiply" opacity="0.91" d="M176.641 201.029C176.641 201.029 160.828 217.061 150.725 215.324L151.411 227.881C156.52 227.15 161.317 224.89 165.222 221.375C169.127 217.86 171.972 213.238 173.414 208.07C174.302 205.642 175.381 203.288 176.641 201.029V201.029V201.029Z" fill="url(#paint24_linear_317_6599)"/>
<path d="M511.058 222.822C511.058 222.822 496.53 250.542 479.52 259.061H473.68L460.262 280.289C460.262 280.289 451.589 274.604 450.946 255.906C452.736 253.922 454.043 251.517 454.757 248.896C454.757 248.896 449.968 244.964 448.669 242.084C447.37 239.204 446.916 230.533 445.997 226.967C445.078 223.401 437.236 215.995 435.484 215.035C433.732 214.075 425.804 213.587 425.804 213.587C425.804 213.587 424.694 210.539 425.804 209.168C426.914 207.797 439.266 202.706 445.997 207.522C446.233 209.42 446.634 211.292 447.194 213.115C447.939 215.035 453.837 221.862 454.757 221.862C455.677 221.862 459.648 218.403 461.4 215.766C466.209 206.225 470.47 196.394 474.162 186.324C474.153 186.258 474.153 186.192 474.162 186.126C474.162 186.02 474.235 185.913 474.249 185.822C474.254 185.756 474.254 185.689 474.249 185.623V185.547C475.914 179.68 485.594 168.418 490.763 165.34C491.501 165.223 492.256 165.392 492.883 165.816C493.51 166.24 493.966 166.89 494.165 167.641C494.165 167.641 490.018 179.97 485.682 187.284C484.952 188.519 484.222 189.967 483.346 191.521C479.651 198.607 475.49 207.888 474.892 209.244L474.819 209.412L477.126 210.646L483.36 204.474L489.755 198.15L504.429 214.319L502.969 216.239L498.384 222.334L500.706 222.776L506.108 216.544L511.058 222.822V222.822Z" fill="url(#paint25_linear_317_6599)"/>
<path style="mix-blend-mode:multiply" opacity="0.6" d="M507.613 228.72L502.97 235.837C502.97 235.837 477.535 215.371 472.001 213.588C466.467 211.805 464.438 213.008 464.438 213.008L458.729 220.628C458.729 220.628 469.242 230.351 470.162 243.487C470.162 243.487 466.657 226.937 454.758 221.923C455.678 221.923 459.649 218.464 461.401 215.828C466.21 206.286 470.471 196.455 474.162 186.386C473.653 188.095 473.736 189.925 474.396 191.582C475.652 194.005 483.04 191.719 483.478 191.582L475.009 209.305L474.936 209.473L477.243 210.707L483.478 204.536L480.353 212.155L503.101 216.346L498.516 222.441L500.838 222.883L507.613 228.72Z" fill="url(#paint26_linear_317_6599)"/>
<path d="M489.886 198.087C489.886 198.087 494.267 197.416 497.187 203.39L496.544 205.31C496.544 205.31 500.925 206.194 505.027 213.494C502.03 218.354 497.493 221.963 492.208 223.689C492.208 223.689 487.974 222.439 487.229 218.69L488.061 216.282L484.747 218.888C484.747 218.888 480.776 220.138 479.023 213.966L489.886 198.087Z" fill="url(#paint27_linear_317_6599)"/>
<path d="M512.385 220.902C512.586 219.448 512.349 217.967 511.704 216.648C511.06 215.338 510.044 214.269 508.794 213.587L500.033 223.69C500.192 224.726 500.677 225.677 501.413 226.392C502.149 227.107 503.091 227.545 504.092 227.637C504.092 227.637 510.079 225.519 512.385 220.902V220.902Z" fill="url(#paint28_linear_317_6599)"/>
<path style="mix-blend-mode:multiply" opacity="0.91" d="M448.67 242.082C455.639 249.695 464.213 255.507 473.71 259.058L467.286 269.208L453.897 251.454L454.758 248.894C454.758 248.894 449.4 244.688 448.67 242.082V242.082Z" fill="url(#paint29_linear_317_6599)"/>
<path d="M496.53 205.312C496.53 205.312 492.296 212.626 488.047 216.284L487.215 218.691C487.215 218.691 495.45 212.885 498.487 206.195C497.9 205.763 497.234 205.462 496.53 205.312Z" fill="#E28183"/>
<path style="mix-blend-mode:multiply" opacity="0.5" d="M465.913 283.458C464.628 285.576 458.175 290.011 456.51 291.748C454.845 293.485 456.51 299.17 456.51 299.17C439.684 317.918 420.011 333.642 398.282 345.71L398.049 345.832C395.829 346.121 385.039 342.952 374.249 320.428C364.467 300.023 361.664 286.399 361.211 284.022V283.656L363.591 280.289L367.124 238.716L369.606 247.083C379.009 235.242 387.872 217.062 387.872 217.062L388.266 218.372C389.858 224.894 393.128 249.323 396.165 257.994C397.45 262.03 399.936 265.532 403.261 267.991C394.603 276.235 390.31 288.091 388.193 297.524C387.045 302.524 386.351 307.627 386.12 312.763C388.295 303.695 391.645 294.979 396.078 286.857C398.917 281.828 402.528 277.277 406.78 273.37C409.415 270.87 412.205 268.539 415.132 266.39C417.205 267.732 418.957 269.85 420.651 268.966C409.262 286.811 409.54 322.135 420.242 315.399C430.944 308.663 433.383 294.369 433.383 294.369C430.857 276.951 431.601 257.308 433.631 253.574C436.098 253.574 443.151 258.832 443.56 258.71C443.047 270.808 446.033 282.787 452.13 293.089L458.219 283.26C452.912 273.948 450.08 263.327 450.013 252.492C450.378 252.325 452.524 254.016 452.524 254.016L451.064 255.967C452.51 264.4 455.88 272.345 460.891 279.13L465.957 271.389C465.957 271.389 467.213 281.34 465.913 283.458V283.458Z" fill="url(#paint30_linear_317_6599)"/>
<path style="mix-blend-mode:multiply" opacity="0.5" d="M348.464 411.664V417.76L348.361 417.867L348.04 418.171L347.777 418.4C345.149 420.564 334.009 427.65 299.201 429.601C257.953 431.902 230.475 418.049 230.475 418.049L232.548 412.121C232.548 412.121 230.621 410.399 230.475 409.531C230.329 408.663 231.935 406.635 231.935 406.635C231.935 406.635 227.788 404.334 227.788 401.439C227.788 398.833 234.563 391.29 235.658 384.203C235.79 383.46 235.844 382.704 235.818 381.948C235.541 374.329 229.233 367.578 228.357 363.25C227.525 358.922 239.147 348.239 239.147 348.239C229.19 315.323 227.248 271.145 227.248 271.145L225.423 268.706C225.423 268.706 213.523 297.005 202.733 310.858C191.943 324.711 176.174 336.597 173.415 336.018C167.049 336.018 159.938 324.466 153.484 310.218C147.03 295.97 146.637 255.037 146.301 252.507C145.965 249.977 142.359 244.888 142.14 242.754C149.06 255.174 160.084 251.517 160.084 251.517C152.097 251.7 147.951 236.11 147.951 236.11V236.003V235.897L144.052 225.153C144.49 225.671 153.616 236.323 162.435 229.725C171.473 222.989 176.13 209.914 176.13 209.914V226.677C176.13 226.677 176.671 229.283 177.503 229.283C176.721 238.141 175.385 246.941 173.502 255.631C169.399 275.64 163.778 294.963 163.778 294.963C163.778 294.963 179.021 286.308 184.38 264.363C186.491 255.772 187.409 246.932 187.11 238.091C186.997 234.399 186.587 230.724 185.884 227.104C185.866 226.996 185.842 226.889 185.811 226.784C185.817 226.733 185.817 226.682 185.811 226.631L187.271 229.893L190.074 237.146C193.33 265.308 186.614 307.749 186.614 307.749C196.396 295.04 198.426 266.939 198.002 260.112L197.404 249.536L197.039 243.211L217.056 255.677L213.362 243.486L227.963 255.677C227.963 255.677 241.104 272.135 254.522 274.055C267.94 275.975 317.408 274.833 317.408 274.833C317.408 274.833 274.438 277.713 261.925 281.568C249.412 285.423 246.988 289.843 246.988 289.843C256.055 337.983 306.238 354.213 307.8 354.701C262.275 347.569 241.089 307.17 241.089 307.17C241.089 307.17 240.345 329.891 243.849 338.547C247.353 347.203 268.013 368.385 294.572 372.805C296.763 373.163 298.971 373.397 301.186 373.506C323.584 374.603 342.068 362.655 344.025 361.314L344.186 361.208C343.47 362.351 334.286 375.822 297.2 377.3C294.952 377.392 292.82 377.376 290.63 377.3C256.26 375.776 238.753 351.897 238.753 351.897C238.753 351.897 226.036 359.028 234.154 369.604L234.417 369.94C236.811 372.82 242.082 376.34 248.317 379.967L248.828 380.272C256.362 384.615 265.195 389.095 272.028 392.798H272.131C275.423 394.485 278.603 396.384 281.65 398.483V398.483C283.578 400.006 283.972 400.89 282.088 401.119C272.496 402.277 236.169 394.002 234.694 396.303C233.219 398.604 236.49 404.578 236.49 404.578C269.838 421.829 341.192 413.325 343.441 413.066C283.49 429.174 234.577 408.906 234.577 408.906L236.198 414.88C254.916 421.107 274.433 424.607 294.149 425.273C325.511 426.035 345.062 417.653 345.062 417.653L348.464 411.664V411.664Z" fill="url(#paint31_linear_317_6599)"/>
<path style="mix-blend-mode:multiply" opacity="0.5" d="M324.096 274.604C324.096 274.604 347.837 275.96 363.518 280.288L355.444 293.089C346.062 285.135 335.465 278.886 324.096 274.604Z" fill="url(#paint32_linear_317_6599)"/>
<path style="mix-blend-mode:multiply" opacity="0.5" d="M346.288 342.937C346.288 342.937 331.469 355.844 316.897 361.803C307.765 365.456 298.12 367.666 288.309 368.355C288.309 368.355 296.689 370.946 317.291 367.487C337.893 364.028 345.033 352.37 345.033 352.37L346.288 342.937Z" fill="url(#paint33_linear_317_6599)"/>
<path style="mix-blend-mode:multiply" opacity="0.5" d="M352.931 392.631C325.51 400.022 290.702 389.416 290.994 388.06C291.286 386.704 300.528 388.639 321.962 384.158C342.739 379.815 350.273 372.104 350.726 371.632C350.551 372.942 347.689 375.823 346.871 378.962C346.316 381.126 350.2 387.709 352.931 392.631V392.631Z" fill="url(#paint34_linear_317_6599)"/>
<path style="mix-blend-mode:multiply" opacity="0.5" d="M278.453 278.49C255.091 280.974 248.726 287.786 248.726 287.786C242.141 288.654 227.35 271.023 227.35 271.023L225.423 268.706C225.423 268.706 213.523 297.005 202.733 310.858C201.438 312.517 200.089 314.134 198.689 315.704L200.222 312.107C200.222 312.107 202.733 310.858 203.463 297.097C204.193 283.336 197.929 262.839 197.886 260.051C197.843 257.263 196.922 243.15 196.922 243.15L216.94 255.616L213.246 243.425L227.846 255.616C227.846 255.616 233.555 264.577 247.966 272.044C261.53 279.13 276.774 278.566 278.453 278.49V278.49Z" fill="url(#paint35_linear_317_6599)"/>
<path style="mix-blend-mode:multiply" opacity="0.5" d="M225.422 268.707L239.38 266.802C244.711 270.186 250.321 273.068 256.142 275.412L246.812 289.782C246.812 289.782 250.521 310.264 261.15 321.784C261.15 321.784 232.941 305.433 229.028 291.687L225.422 268.707V268.707Z" fill="url(#paint36_linear_317_6599)"/>
<path style="mix-blend-mode:multiply" opacity="0.5" d="M143.965 225.152L147.951 236.109C147.951 236.109 152.01 250.891 160.084 251.516C168.158 252.141 176.043 226.722 176.043 226.722V209.959C176.043 209.959 167.458 229.16 158.186 231.294C148.914 233.428 143.965 225.152 143.965 225.152Z" fill="url(#paint37_linear_317_6599)"/>
<path style="mix-blend-mode:multiply" opacity="0.5" d="M192.234 216.482C192.234 216.482 199.433 231.493 208.295 236.11C208.295 236.11 197.768 209.442 199.987 193.761C199.958 193.761 196.089 196.275 192.234 216.482V216.482Z" fill="url(#paint38_linear_317_6599)"/>
<path style="mix-blend-mode:multiply" opacity="0.76" d="M367.066 238.716L369.548 247.082L372.059 315.734C367.424 305.574 363.789 294.948 361.211 284.022L363.532 280.288C363.532 280.288 367.445 254.412 367.066 238.716V238.716Z" fill="url(#paint39_linear_317_6599)"/>
<path style="mix-blend-mode:multiply" opacity="0.5" d="M443.5 258.923C443.5 258.923 442.039 292.647 455.823 295.497L456.509 299.185C456.509 299.185 438.74 298.484 443.5 258.923V258.923Z" fill="url(#paint40_linear_317_6599)"/>
<path style="mix-blend-mode:multiply" opacity="0.3" d="M420.592 269.179C420.592 269.179 420.067 270.383 415.073 266.604C415.073 266.604 397.801 279.374 391.143 297.371C391.143 297.371 401.787 280.838 407.452 279.085C413.117 277.332 414.489 283.9 414.489 283.9C414.489 283.9 416.738 274.558 420.592 269.179Z" fill="url(#paint41_linear_317_6599)"/>
<path style="mix-blend-mode:multiply" opacity="0.5" d="M142.14 242.8C142.14 242.8 148.783 255.585 161.237 251.578C161.237 251.578 153.776 256.82 146.301 252.553C146.301 252.507 141.658 244.202 142.14 242.8V242.8Z" fill="url(#paint42_linear_317_6599)"/>
<path style="mix-blend-mode:multiply" opacity="0.5" d="M185.664 226.57C185.664 226.57 194.804 262.23 170.961 289.051C175.807 286.125 180.004 282.161 183.276 277.42C186.563 272.641 188.832 267.237 189.942 261.544C191.962 249.703 190.469 237.502 185.664 226.57Z" fill="url(#paint43_linear_317_6599)"/>
<path style="mix-blend-mode:multiply" opacity="0.5" d="M349.398 198.072C349.398 198.072 348.376 214.165 340.973 225.716C333.57 237.267 318.926 245.054 318.926 245.054C318.926 245.054 337.323 237.983 345.762 228.032C354.201 218.081 349.398 198.072 349.398 198.072Z" fill="url(#paint44_linear_317_6599)"/>
<path style="mix-blend-mode:multiply" opacity="0.5" d="M255.297 173.857C255.479 183.054 256.858 192.189 259.4 201.029C263.547 214.744 299.567 238.715 299.567 238.715C299.567 238.715 262.452 222.607 255.253 208.145C248.054 193.683 255.297 173.857 255.297 173.857V173.857Z" fill="url(#paint45_linear_317_6599)"/>
<path style="mix-blend-mode:multiply" opacity="0.5" d="M331.365 176.769C330.226 190.941 326.094 200.816 321.684 207.476C315.61 216.619 309.04 219.743 309.04 219.743C302.884 216.95 297.11 213.316 291.869 208.938C278.646 197.632 268.881 182.535 263.777 165.507C272.538 187.665 285.474 201.09 295.257 208.649C299.456 212.033 304.074 214.86 308.996 217.061V209.975C307.45 209.37 305.939 208.678 304.47 207.902C287.241 198.835 278.188 179.938 273.954 167.717C272.651 164.042 271.588 160.28 270.771 156.455H273.896L272.874 158.741V158.817C273.37 161.133 273.939 163.389 274.582 165.477C274.574 165.532 274.574 165.589 274.582 165.644C284.218 197.296 309.04 207.521 309.04 207.521C326.269 194.248 325.933 173.172 325.933 173.172V170.277L329.16 171.283L331.365 176.769V176.769Z" fill="url(#paint46_linear_317_6599)"/>
<path style="mix-blend-mode:multiply" opacity="0.3" d="M433.573 253.787C433.573 253.787 428.886 269.742 433.324 294.582C433.324 294.582 435.529 263.113 437.194 260.37C438.859 257.627 443.501 258.923 443.501 258.923C440.286 257.034 436.972 255.319 433.573 253.787V253.787Z" fill="url(#paint47_linear_317_6599)"/>
<path style="mix-blend-mode:multiply" opacity="0.5" d="M388.135 340.605C384.047 336.871 379.141 330.638 374.249 320.428C364.467 300.023 361.664 286.399 361.211 284.022L363.532 280.288L366.642 248.896L369.563 247.083C376.976 238.012 383.143 227.908 387.887 217.062C388.052 217.487 388.184 217.925 388.281 218.372C389.872 224.894 393.143 249.323 396.18 257.994C397.465 262.03 399.951 265.532 403.276 267.991C403.276 267.991 385.302 295.817 384.426 315.674C383.579 333.808 387.434 339.69 388.135 340.605Z" fill="url(#paint48_linear_317_6599)"/>
<path style="mix-blend-mode:multiply" opacity="0.5" d="M281.416 398.635C281.416 398.635 249.017 393.088 235.789 384.188C235.921 383.444 235.975 382.689 235.949 381.933C235.672 374.313 229.364 367.562 228.488 363.234C228.634 363.646 229.583 365.932 234.183 370.046C238.514 373.789 243.165 377.145 248.083 380.074L248.594 380.378C257.938 386.139 265.983 390.04 271.794 392.905H271.897C277.124 395.465 280.511 397.157 281.416 398.589V398.635Z" fill="url(#paint49_linear_317_6599)"/>
<path style="mix-blend-mode:multiply" opacity="0.5" d="M350.726 371.707C350.551 373.018 347.689 375.898 346.871 379.037C346.871 379.037 334.986 392.173 290.994 388.18C291.286 386.885 300.528 388.759 321.962 384.279C342.739 379.951 350.273 372.179 350.726 371.707V371.707Z" fill="url(#paint50_linear_317_6599)"/>
<g style="mix-blend-mode:multiply" opacity="0.5">
<g style="mix-blend-mode:multiply" opacity="0.5">
<path d="M358.04 194.034L329.919 203.482L321.684 207.475H309.04L304.514 207.856L302.119 208.039L295.301 208.603L291.87 208.892L258.142 196.152L252.097 193.927L224.355 183.443L226.881 182.407C245.497 174.711 263.763 165.369 263.763 165.369L270.771 156.378H273.896C276.293 150.884 278.247 145.19 279.736 139.356L281.591 130.655L281.78 129.359L291.709 134.83L325.189 162.779C325.189 164.684 325.189 166.39 325.32 167.838L325.802 171.358C325.89 170.673 325.919 170.276 325.919 170.276L329.145 171.282L331.35 176.768C331.35 176.768 335.088 182.864 349.893 189.63C352.686 190.952 355.405 192.422 358.04 194.034V194.034V194.034Z" fill="#7A4AC0"/>
</g>
</g>
<path d="M336.622 167.198C327.23 168.812 317.59 167.331 309.041 162.962C294.572 155.647 282.41 134.008 281.665 128.704C280.92 123.4 287.199 109.259 287.199 98.2258C287.199 87.1928 282.045 68.3878 290.703 58.1778C299.361 47.9678 339.207 46.4438 352.128 59.5338C352.128 59.5338 356.129 70.0178 356.129 75.9468C356.057 77.9442 355.852 79.9346 355.516 81.9048C355.399 82.8038 355.238 83.7638 355.092 84.7548C353.939 91.9328 352.347 100.695 353.092 104.566C353.353 105.853 353.739 107.109 354.245 108.314C355.837 112.155 358.202 115.218 358.626 118.54C359.181 122.929 353.603 153.727 336.622 167.198V167.198Z" fill="url(#paint51_linear_317_6599)"/>
<path d="M287.14 95.1949C287.14 95.1949 283.563 85.8229 274.569 85.6709C274.569 85.6709 269.313 87.8499 268.48 92.0259C268.48 92.0259 270.422 107.265 272.627 114.259C274.832 121.253 282.964 120.355 282.964 120.355C287.259 112.784 288.745 103.833 287.14 95.1949V95.1949Z" fill="url(#paint52_linear_317_6599)"/>
<path d="M321.643 126.054C323.113 125.903 324.596 126.166 325.935 126.816C327.22 127.837 331.922 132.592 337.879 133.903C343.836 135.214 347.807 129.91 349.078 129.636C350.349 129.362 351.735 131.236 351.735 131.236C351.424 130.44 350.929 129.737 350.295 129.19C349.667 128.645 348.911 128.269 348.099 128.097C348.099 128.097 346.844 133.08 338.215 131.373C329.586 129.666 325.935 125.674 325.935 125.674L325.497 124.851C324.179 125.138 322.889 125.54 321.643 126.054V126.054Z" fill="url(#paint53_linear_317_6599)"/>
<path style="mix-blend-mode:multiply" opacity="0.6" d="M308.924 79.4364L309.041 78.4764C309.041 78.4764 317.641 62.7194 334.651 62.2924C351.661 61.8654 355.515 72.9594 355.515 72.9594L358.684 67.9914L351.5 52.7524L301.507 51.8994L289.33 62.1404L287.797 87.2394L293.214 120.369L306.354 127.683L310.063 124.255C308.691 113.161 300.792 103.027 300.792 103.027L306.559 98.8514C306.559 98.8514 321.349 106.318 329.92 104.078C329.92 104.078 336.359 84.4964 335.98 69.9734C335.98 69.9734 314.064 73.3564 308.924 79.4374V79.4364Z" fill="url(#paint54_linear_317_6599)"/>
<path d="M308.164 80.5952C308.164 80.5952 308.996 74.9262 318.166 72.6562L336.694 67.9932C336.694 67.9932 334.884 74.2112 331.482 76.5422C331.482 76.5422 320.662 76.1312 315.187 77.4412C309.712 78.7512 308.164 80.5952 308.164 80.5952ZM355.514 72.9902C355.514 72.9902 350.316 77.1662 346.754 87.1172C346.754 87.1172 350.141 82.5452 353.251 82.5452C353.521 82.5369 353.789 82.5924 354.034 82.7072C354.282 82.824 354.499 82.9961 354.67 83.2102C354.843 83.4262 354.967 83.6792 355.032 83.9522C355.097 84.2252 355.103 84.5092 355.047 84.7852C356.291 80.9832 356.453 76.8862 355.514 72.9902V72.9902Z" fill="#38368E"/>
<path d="M311.598 96.6419C311.598 96.6419 312.152 84.6639 323.351 81.6309C325.743 85.0219 327.252 89.0019 327.732 93.1819C327.732 93.1819 321.833 92.0239 311.598 96.6409V96.6419Z" fill="url(#paint55_linear_317_6599)"/>
<path d="M343.688 101.412C343.688 101.412 344.594 91.8725 349.835 88.3525C349.835 88.3525 353.413 91.1415 353.048 99.1265C353.048 99.1265 349.923 98.0295 343.688 101.412Z" fill="url(#paint56_linear_317_6599)"/>
<path d="M311.598 96.6428C311.598 96.6428 315.233 101.321 325.425 102.235C326.831 99.4238 327.439 96.2518 327.177 93.0918C327.177 93.0918 317.803 92.1778 311.598 96.6428ZM343.689 101.412V102.814C343.689 102.814 345.252 106.228 350.873 106.807C352.131 104.423 352.806 101.775 352.844 99.0798C352.844 99.0798 349.267 98.1348 343.689 101.412V101.412Z" fill="#FFEBED"/>
<path d="M322.49 92.8624C320.799 95.3164 319.969 98.3024 320.139 101.32C321.879 101.748 323.645 102.054 325.424 102.234C326.968 99.4754 327.585 96.2574 327.177 93.0914C325.639 92.746 324.054 92.6689 322.49 92.8634V92.8634V92.8624ZM349.019 99.2334C349.019 99.2334 347.559 100.878 347.281 105.892C348.415 106.406 349.631 106.715 350.873 106.806C352.249 104.47 352.933 101.791 352.844 99.0804C351.585 98.7222 350.245 98.7754 349.019 99.2324V99.2334Z" fill="#7F9EC9"/>
<path d="M321.64 101.671C321.64 101.671 320.721 95.1936 324.269 92.7256L327.189 93.1066C327.7 96.2756 327.076 99.5296 325.437 102.25L321.64 101.671ZM350.302 98.9576C349.335 101.314 348.687 103.789 348.375 106.318C349.175 106.616 350.019 106.781 350.872 106.806C352.315 104.522 353.007 101.81 352.843 99.0796C352.015 98.8446 351.147 98.8036 350.302 98.9576Z" fill="#38368E"/>
<path d="M311.598 96.641C311.598 96.641 318.372 92.526 329.922 94.873L327.775 93.181C325.005 92.475 322.11 92.4188 319.315 93.017C316.518 93.615 313.882 94.852 311.598 96.64V96.641ZM343.689 101.412C347.352 99.586 351.493 99.087 355.458 99.995L352.844 98.029C352.844 98.029 348.595 97.298 343.689 101.412V101.412Z" fill="#131163"/>
<path d="M318.926 96.6422C319.57 96.5552 320.225 96.6322 320.835 96.8652C321.45 97.1022 321.997 97.486 322.43 97.9832C321.785 98.1682 321.1 98.1392 320.472 97.8982C319.837 97.6523 319.296 97.2128 318.926 96.6422V96.6422ZM346.171 102.234C346.171 102.234 349.091 101.64 350.055 103.026C350.055 103.026 348.463 104.124 346.171 102.234Z" fill="white"/>
<path d="M312.268 97.3428C316.109 100.947 320.873 103.303 325.978 104.124L326.197 100.924L325.423 102.28C325.423 102.28 317.319 101.732 312.268 97.3428ZM343.688 102.813C343.688 102.813 344.623 106.318 351.485 107.903L351.266 106.197L350.872 106.806C350.872 106.806 345.995 106.151 343.688 102.813Z" fill="#C6659C"/>
<path d="M329.92 116.863C332.34 116.48 334.801 116.48 337.22 116.863C341.922 117.443 347.222 118.784 350.098 116.863C350.098 116.863 346.273 120.871 342.944 121.435C339.615 121.999 334.548 118.997 334.548 118.997H332.344C331.37 118.52 330.534 117.785 329.92 116.863Z" fill="#CB5F7D"/>
<path d="M332.621 119.073C333.246 118.657 333.988 118.453 334.738 118.494C335.702 118.692 336.695 120.155 336.695 120.155C335.43 119.486 334.039 119.117 332.621 119.073V119.073Z" fill="#9F4A8B"/>
<path d="M350.054 116.864C351.295 115.614 344.929 103.773 341.877 103.347C338.825 102.921 336.037 116.605 336.037 116.605L344.374 117.793C348.477 118.357 350.054 116.864 350.054 116.864Z" fill="#FFBCAF"/>
<path style="mix-blend-mode:multiply" opacity="0.6" d="M354.61 79.6183C352.887 79.3893 346.799 87.1163 346.799 87.1163C346.799 87.1163 342.929 99.6273 343.689 103.33C344.449 107.033 353.909 109.014 353.909 109.014L354.303 108.359C353.796 107.151 353.41 105.895 353.15 104.61C352.405 100.77 353.997 92.0083 355.15 84.7993C355.38 83.8663 355.522 82.9113 355.574 81.9493C355.559 80.8063 355.398 79.7393 354.61 79.6183V79.6183Z" fill="url(#paint57_linear_317_6599)"/>
<path d="M354.305 130.428C352.363 126.192 353.56 123.982 336.696 121.681C312.824 118.404 310.78 126.009 306.721 124.85C306.556 124.801 306.395 124.74 306.239 124.668C301.858 122.885 291.492 112.263 291.229 97.9539C290.952 83.0809 300.501 72.5349 300.501 72.5349C297.04 69.4869 295.653 60.7099 299.391 56.9449C303.129 53.1799 309.495 54.0649 325.118 55.7869C340.741 57.5089 340.755 56.5179 340.755 56.5179C345.719 57.8439 348.567 62.7049 349.37 64.2589C349.455 64.4178 349.533 64.5807 349.603 64.7469L351.545 62.8729C354.7 67.7549 356.21 73.5929 355.838 79.4679C355.838 79.4679 364.408 61.2719 363.43 58.6969C361.492 54.3919 359.134 50.3059 356.393 46.5059C356.393 46.5059 355.005 32.6539 350.859 32.6539C346.713 32.6539 328.958 36.8299 328.958 36.8299C330.161 33.5659 330.727 30.0849 330.622 26.5889L330.549 26.6649C324.709 32.0749 319.117 32.6689 311.115 36.5399C308.233 37.8009 305.669 39.7409 303.625 42.2089L303.085 42.8799L302.516 43.5959C301.961 44.3269 301.391 45.1199 300.705 45.8359C300.679 45.87 300.65 45.9006 300.617 45.9269C299.895 46.7389 299.119 47.4979 298.296 48.1979C293.04 52.6629 281.476 55.6499 280.089 60.3889C278.702 65.1279 281.841 71.5439 283.505 78.1879C284.498 82.2792 284.8 86.508 284.396 90.6989C287.881 96.0509 289.203 102.622 288.075 108.986C286.455 118.693 282.907 120.278 282.907 120.278C281.416 123.49 280.955 127.118 281.593 130.625C286.703 151.838 307.874 164.471 307.874 164.471C326.68 171.786 339.047 168.601 339.047 168.601C352.728 159.29 357.415 128.476 357.619 127.044C357.385 127.44 354.845 131.555 354.305 130.427V130.428ZM345.865 150.071C342.551 149.492 341.85 140.73 340.755 139.571C339.66 138.412 333.644 138.901 333.644 138.901C333.644 138.901 328.111 145.454 325.906 145.637C323.701 145.82 311.889 140.821 314.444 133.323C316.999 125.825 325.906 124.85 325.906 124.85C329.239 127.509 333.242 129.098 337.426 129.422C344.347 129.895 346.844 128.569 347.647 128.188C348.45 127.807 352.932 129.91 352.815 136.463C352.845 140.958 349.224 150.65 345.895 150.071H345.865Z" fill="url(#paint58_linear_317_6599)"/>
<path d="M345.032 105.968C345.032 105.968 350.989 113.694 350.42 116.635C349.807 119.82 342.9 121.512 342.9 121.512C342.9 121.512 348.434 119.515 349.573 116.635C348.585 112.86 347.054 109.264 345.032 105.968Z" fill="#D2726C"/>
<path style="mix-blend-mode:multiply" opacity="0.6" d="M355.865 79.4678C356.237 73.5918 354.727 67.7538 351.572 62.8728C354.182 57.8108 355.823 52.2678 356.405 46.5518C357.498 50.0787 358.251 53.7017 358.654 57.3718L363.443 58.6828C364.436 61.2738 355.865 79.4688 355.865 79.4688V79.4678Z" fill="url(#paint59_linear_317_6599)"/>
<path style="mix-blend-mode:multiply" opacity="0.6" d="M349.399 64.2587C348.596 62.7347 345.749 57.8427 340.784 56.5177C340.784 56.5177 340.784 57.5237 325.147 55.7867C309.51 54.0497 303.202 53.1957 299.42 56.8837C295.638 60.5717 297.069 69.4407 300.53 72.4737C300.53 72.4737 290.981 83.0187 291.258 97.8927C291.521 112.202 301.873 122.824 306.268 124.607L306.064 126.131C306.064 126.131 306.837 158.895 314.474 161.501C322.111 164.107 337.923 162.75 339.397 164.289C340.871 165.828 339.193 168.267 339.047 168.495C339.047 168.495 326.68 171.68 307.874 164.366C307.874 164.366 286.732 151.732 281.593 130.52C280.954 127.017 281.413 123.403 282.907 120.172C282.907 120.172 286.455 118.648 288.075 108.88C289.203 102.517 287.881 95.9457 284.396 90.5927C284.8 86.4019 284.498 82.173 283.505 78.0817C281.841 71.4377 278.702 64.9917 280.089 60.2827C285.19 61.1817 290.426 59.9737 294.69 56.9147C294.69 56.9147 296.237 54.6747 303.085 53.5167C309.933 52.3587 337.455 55.2537 337.455 55.2537C334.881 53.3437 331.967 51.9917 328.885 51.2767C323.395 49.7527 304.647 51.5207 302.603 51.6877C304.749 51.2917 325.964 47.4817 328.432 48.2437C330.9 49.0057 340.2 53.4407 340.2 53.4407C339.47 49.2647 331.235 38.5977 331.235 38.5977C324.771 38.7241 318.327 39.3561 311.962 40.4877C307.838 41.2667 303.971 43.1227 300.72 45.8827L302.53 43.6427L303.1 42.9267L303.64 42.2557L306.297 41.7837L319.642 36.1607C324.125 33.6617 329.863 27.4747 330.564 26.7127L330.637 26.6367C330.741 30.1317 330.175 33.6137 328.972 36.8777C340.244 35.4297 344.055 36.1617 344.055 36.1617C349.224 43.7357 349.399 64.2627 349.399 64.2627V64.2587Z" fill="url(#paint60_linear_317_6599)"/>
<path style="mix-blend-mode:multiply" opacity="0.5" d="M307.857 164.501C313.562 163.332 319.383 162.902 325.189 163.221C335.628 163.663 341.614 163.709 339.03 168.631C339.03 168.631 325.933 171.724 307.857 164.501Z" fill="url(#paint61_linear_317_6599)"/>
<path d="M344.083 36.1588C344.083 36.1588 350.419 33.5838 352.931 33.9948C352.416 33.269 351.714 32.6952 350.901 32.3338C349.865 32.0438 329 36.9058 329 36.9058C329 36.9058 342.024 35.2908 344.083 36.1588V36.1588Z" fill="url(#paint62_linear_317_6599)"/>
<path d="M331.235 38.5957C331.235 38.5957 330.738 45.8037 328.534 48.4097L302.705 51.8537L295.127 50.4517C297.509 49.1857 299.605 47.4037 301.274 45.2247C304.501 41.3087 321.35 37.4527 331.235 38.5957V38.5957Z" fill="url(#paint63_linear_317_6599)"/>
<path d="M356.406 46.5518C357.481 50.0828 358.243 53.7098 358.684 57.3868L363.473 58.6968C361.912 54.1988 359.51 50.0708 356.406 46.5518Z" fill="url(#paint64_linear_317_6599)"/>
<path style="mix-blend-mode:multiply" opacity="0.8" d="M286.03 107.903C286.03 107.903 284.205 98.7595 279.752 94.3095C278.533 93.0155 277.025 92.0585 275.362 91.5265C273.699 90.9945 271.937 90.9035 270.232 91.2615C270.232 91.2615 271.619 108.13 273.065 112.245C274.511 116.36 276.73 117.441 276.73 117.441C274.611 115.174 273.36 112.177 273.211 109.014C272.788 103.437 272.656 95.5585 273.824 94.6285C274.992 93.6985 279.752 97.3415 279.752 97.3415C278.474 99.4235 277.656 101.776 277.358 104.229C276.452 109.212 279.781 112.824 281.022 112.748C282.263 112.672 280.949 106.987 281.168 105.357C281.387 103.727 284.132 104.122 286.03 107.902V107.903Z" fill="url(#paint65_linear_317_6599)"/>
<path style="mix-blend-mode:multiply" opacity="0.8" d="M281.578 96.6113C280.074 97.7703 278.88 99.3143 278.113 101.095C277.346 102.876 277.031 104.832 277.198 106.776C277.724 113.618 281.476 113.313 281.491 111.881C281.506 110.449 280.775 106.745 281.155 104.658C281.535 102.571 284.761 103.515 284.761 103.515C283.879 101.136 282.814 98.8276 281.578 96.6113V96.6113Z" fill="url(#paint66_linear_317_6599)"/>
<path d="M357.618 127.059C357.618 127.059 351.573 155.815 339.031 168.631C339.031 168.631 353.34 162.764 357.618 127.059ZM350.916 32.3321C350.916 32.3321 354.099 34.9231 354.698 43.8981C355.297 52.8731 351.573 62.8711 351.573 62.8711C354.463 58.1501 356.263 52.7921 356.829 47.2201C357.224 39.0371 353.442 33.3681 350.916 32.3311V32.3321Z" fill="#34C7FF"/>
<path d="M312.312 51.1536C317.327 52.8406 322.512 53.9701 327.774 54.5216L337.527 55.4356C337.527 55.4356 334.271 52.1436 327.307 51.1536C322.323 50.5946 317.297 50.5946 312.312 51.1536V51.1536Z" fill="url(#paint67_linear_317_6599)"/>
<path d="M347.936 127.682C347.936 127.682 351.47 127.682 352.857 132.254C353.543 134.489 354.032 136.784 354.317 139.112L355.558 134.052C355.558 134.052 353.937 127.636 352.244 126.204C351.017 125.153 348.915 124.101 347.863 124.36L347.936 127.682V127.682Z" fill="url(#paint68_linear_317_6599)"/>
<path d="M338.434 123.066L339.032 128.552C341.446 128.75 343.875 128.455 346.172 127.684L346.683 124.362C343.984 123.633 341.219 123.199 338.434 123.066V123.066Z" fill="url(#paint69_linear_317_6599)"/>
<path d="M358.041 194.035C358.041 194.035 383.198 213.206 386.454 219.804C389.71 226.402 391.039 247.082 395.463 256.043L390.323 229.908C388.206 218.418 388.717 218.265 387.535 215.461C386.353 212.657 367.575 198.973 358.041 194.035V194.035ZM353.53 300.707C353.53 300.707 341.411 354.882 341.966 358.539C342.521 362.196 350.361 369.664 350.726 371.706C350.726 371.706 344.725 380.087 345.003 381.947C345.281 383.807 355.515 395.54 355.223 399.182C355.15 400.233 348.507 411.663 348.507 411.663C348.507 411.663 356.012 400.432 356.377 398.633C356.742 396.834 347.193 381.87 346.901 380.346C346.185 376.4 351.675 373.504 351.865 370.898C352.055 368.292 344.419 361.953 344.36 357.716C344.301 353.479 353.53 300.707 353.53 300.707ZM355.997 429.828C355.997 429.828 382.206 491.745 391.141 553.676C391.141 553.676 389.652 493.238 355.997 429.828V429.828Z" fill="#34C7FF"/>
<path d="M189.826 181.538C189.826 181.538 183.051 180.015 180.233 173.919C177.415 167.823 179.255 158.802 179.255 158.802C181.659 163.691 184.315 168.452 187.212 173.066C189.855 176.632 190.571 180.761 189.826 181.538V181.538Z" fill="#FFBCAF"/>
<path opacity="0.6" d="M399.071 149.247L403.772 289.142C403.859 291.813 404.938 294.344 406.779 296.201C408.62 298.058 411.082 299.095 413.642 299.093H644.525C647.104 299.09 649.58 298.035 651.424 296.153C653.268 294.271 654.334 291.711 654.395 289.02L657.622 147.51C657.655 146.13 657.422 144.758 656.938 143.474C656.454 142.19 655.726 141.021 654.8 140.036C653.874 139.051 652.767 138.27 651.547 137.74C650.331 137.212 649.018 136.942 647.693 136.949L408.868 138.58C407.544 138.59 406.237 138.876 405.031 139.42C403.818 139.965 402.723 140.758 401.809 141.753C400.895 142.748 400.183 143.923 399.712 145.21C399.241 146.497 399.024 147.87 399.071 149.247V149.247Z" fill="#36D1F7"/>
<path d="M644.525 299.474H413.642C410.989 299.476 408.439 298.4 406.531 296.475C404.623 294.55 403.509 291.925 403.421 289.157L398.72 149.263C398.669 147.829 398.895 146.399 399.386 145.059C399.877 143.719 400.622 142.495 401.576 141.462C402.53 140.429 403.674 139.608 404.94 139.047C406.206 138.486 407.566 138.198 408.941 138.199L647.766 136.568C649.128 136.575 650.475 136.861 651.722 137.409C652.983 137.964 654.12 138.767 655.066 139.769C656.025 140.789 656.778 142 657.279 143.33C657.78 144.66 658.021 146.081 657.987 147.51L654.745 289.035C654.688 291.825 653.586 294.48 651.675 296.431C649.764 298.382 647.198 299.475 644.525 299.474V299.474ZM647.781 137.33L408.97 138.961C407.694 138.971 406.433 139.247 405.27 139.772C404.101 140.297 403.045 141.062 402.164 142.021C401.283 142.98 400.596 144.114 400.142 145.355C399.688 146.601 399.478 147.922 399.523 149.247L404.224 289.127C404.301 291.702 405.336 294.144 407.112 295.935C408.888 297.726 411.261 298.721 413.73 298.712H644.525C647.004 298.697 649.38 297.679 651.153 295.871C652.926 294.063 653.958 291.606 654.03 289.02L657.271 147.495C657.3 146.171 657.076 144.854 656.61 143.622C656.144 142.39 655.448 141.268 654.561 140.321C653.674 139.374 652.615 138.621 651.446 138.108C650.282 137.596 649.023 137.331 647.751 137.33H647.781V137.33Z" fill="#744CA2"/>
<path style="mix-blend-mode:multiply" opacity="0.6" d="M399.405 156.378H657.357L657.766 149.002C657.852 147.461 657.634 145.917 657.124 144.459C656.62 143.016 655.831 141.689 654.804 140.557C653.783 139.436 652.552 138.545 651.188 137.94C649.831 137.336 648.36 137.029 646.874 137.039L408.15 139.005C406.966 139.015 405.796 139.27 404.707 139.755C403.618 140.24 402.632 140.947 401.806 141.833C400.98 142.719 400.332 143.767 399.897 144.916C399.462 146.07 399.25 147.297 399.273 148.53L399.405 156.378V156.378Z" fill="url(#paint70_linear_317_6599)"/>
<path style="mix-blend-mode:multiply" opacity="0.3" d="M412.387 167.655V248.62H491.333V167.229L412.387 167.655V167.655Z" fill="url(#paint71_linear_317_6599)"/>
<path style="mix-blend-mode:multiply" opacity="0.3" d="M601.978 173.097H567.637V208.939H601.978V173.097Z" fill="url(#paint72_linear_317_6599)"/>
<path style="mix-blend-mode:multiply" opacity="0.3" d="M642.509 173.097H608.168V208.939H642.509V173.097Z" fill="url(#paint73_linear_317_6599)"/>
<path style="mix-blend-mode:multiply" opacity="0.3" d="M560.788 173.097H526.447V208.939H560.788V173.097Z" fill="url(#paint74_linear_317_6599)"/>
<g style="mix-blend-mode:multiply">
<g style="mix-blend-mode:multiply">
<path d="M642.509 229.847H554.686V238.426H642.509V229.847Z" fill="#D1D4FB"/>
</g>
</g>
<g style="mix-blend-mode:multiply">
<g style="mix-blend-mode:multiply">
<path d="M642.509 242.906H532.711V245.558H642.509V242.906Z" fill="#D1D4FB"/>
</g>
</g>
<g style="mix-blend-mode:multiply">
<g style="mix-blend-mode:multiply">
<path d="M554.759 213.511H533.748V216.162H554.759V213.511Z" fill="#D1D4FB"/>
</g>
</g>
<g style="mix-blend-mode:multiply">
<g style="mix-blend-mode:multiply">
<path d="M595.319 213.511H574.309V216.162H595.319V213.511Z" fill="#D1D4FB"/>
</g>
</g>
<g style="mix-blend-mode:multiply">
<g style="mix-blend-mode:multiply">
<path d="M635.837 213.511H614.826V216.162H635.837V213.511Z" fill="#D1D4FB"/>
</g>
</g>
<g style="mix-blend-mode:multiply">
<g style="mix-blend-mode:multiply">
<path d="M561.767 247.22H526.447V249.871H561.767V247.22Z" fill="#D1D4FB"/>
</g>
</g>
<g style="mix-blend-mode:multiply">
<g style="mix-blend-mode:multiply">
<path d="M642.509 251.5H532.711V254.152H642.509V251.5Z" fill="#D1D4FB"/>
</g>
</g>
<g style="mix-blend-mode:multiply">
<g style="mix-blend-mode:multiply">
<path d="M642.509 255.769H526.447V258.42H642.509V255.769V255.769Z" fill="#D1D4FB"/>
</g>
</g>
<g style="mix-blend-mode:multiply">
<g style="mix-blend-mode:multiply">
<path d="M642.509 260.035H526.447V262.687H642.509V260.035Z" fill="#D1D4FB"/>
</g>
</g>
<g style="mix-blend-mode:multiply">
<g style="mix-blend-mode:multiply">
<path d="M642.509 277.285H532.711V279.937H642.509V277.285Z" fill="#D1D4FB"/>
</g>
</g>
<g style="mix-blend-mode:multiply">
<g style="mix-blend-mode:multiply">
<path d="M642.509 281.554H526.447V284.205H642.509V281.554Z" fill="#D1D4FB"/>
</g>
</g>
<g style="mix-blend-mode:multiply">
<g style="mix-blend-mode:multiply">
<path d="M642.509 285.818H526.447V288.47H642.509V285.818Z" fill="#D1D4FB"/>
</g>
</g>
<g style="mix-blend-mode:multiply">
<g style="mix-blend-mode:multiply">
<path d="M637.851 264.302H526.447V266.953H637.851V264.302Z" fill="#D1D4FB"/>
</g>
</g>
<g style="mix-blend-mode:multiply">
<g style="mix-blend-mode:multiply">
<path d="M642.509 268.568H532.711V271.22H642.509V268.568Z" fill="#D1D4FB"/>
</g>
</g>
<g style="mix-blend-mode:multiply">
<g style="mix-blend-mode:multiply">
<path d="M620.491 272.837H526.447V275.489H620.491V272.837Z" fill="#D1D4FB"/>
</g>
</g>
<g style="mix-blend-mode:soft-light">
<g style="mix-blend-mode:soft-light">
<g style="mix-blend-mode:soft-light">
<path d="M434.506 232.391C430.061 232.394 425.715 231.021 422.018 228.446C418.321 225.871 415.438 222.209 413.735 217.924C412.03 213.62 411.584 208.92 412.451 204.372C413.316 199.822 415.455 195.641 418.597 192.36C421.739 189.079 425.743 186.843 430.102 185.937C434.461 185.031 438.98 185.495 443.087 187.269C447.194 189.043 450.704 192.05 453.174 195.907C455.644 199.764 456.962 204.299 456.962 208.938C456.958 215.155 454.591 221.115 450.381 225.512C446.171 229.909 440.462 232.383 434.506 232.391V232.391ZM434.506 187.025C430.349 187.022 426.285 188.305 422.827 190.714C419.369 193.123 416.675 196.547 415.083 200.555C413.491 204.563 413.073 208.973 413.884 213.228C414.695 217.483 416.695 221.392 419.634 224.46C422.573 227.528 426.319 229.616 430.396 230.462C434.473 231.308 438.698 230.872 442.538 229.21C446.378 227.548 449.659 224.736 451.967 221.127C454.284 217.484 455.511 213.255 455.502 208.938C455.494 203.129 453.279 197.56 449.344 193.452C445.409 189.344 440.072 187.033 434.506 187.025V187.025Z" fill="#E0FFFF"/>
</g>
</g>
</g>
<path d="M434.507 221.677C441.248 221.677 446.713 215.973 446.713 208.937C446.713 201.901 441.248 196.197 434.507 196.197C427.766 196.197 422.301 201.901 422.301 208.937C422.301 215.973 427.766 221.677 434.507 221.677Z" fill="white"/>
<g style="mix-blend-mode:soft-light">
<g style="mix-blend-mode:soft-light">
<g style="mix-blend-mode:soft-light">
<path d="M491.332 190.682C486.887 190.682 482.542 189.306 478.846 186.729C475.15 184.152 472.271 180.487 470.57 176.201C468.869 171.915 468.426 167.198 469.294 162.648C470.162 158.098 472.304 153.92 475.448 150.64C478.592 147.36 482.597 145.128 486.957 144.225C491.317 143.322 495.836 143.789 499.941 145.566C504.046 147.343 507.555 150.352 510.023 154.211C512.491 158.07 513.806 162.605 513.803 167.245C513.795 173.461 511.425 179.42 507.212 183.814C502.999 188.208 497.288 190.678 491.332 190.682ZM491.332 145.316C487.177 145.316 483.114 146.602 479.659 149.011C476.204 151.42 473.511 154.846 471.921 158.853C470.329 162.877 469.914 167.272 470.725 171.523C471.536 175.777 473.537 179.684 476.475 182.751C479.413 185.818 483.157 187.906 487.233 188.752C491.309 189.598 495.533 189.164 499.372 187.504C503.211 185.844 506.493 183.034 508.802 179.428C511.111 175.822 512.343 171.582 512.343 167.245C512.348 164.368 511.808 161.517 510.752 158.841C509.698 156.176 508.151 153.754 506.2 151.713C504.249 149.672 501.931 148.053 499.38 146.948C496.829 145.843 494.094 145.272 491.332 145.27V145.316V145.316Z" fill="#E0FFFF"/>
</g>
</g>
</g>
<path d="M505.939 168.806C506.954 162.249 502.684 156.074 496.402 155.014C490.12 153.954 484.203 158.411 483.187 164.969C482.171 171.527 486.442 177.701 492.725 178.761C499.008 179.821 504.924 175.364 505.939 168.806V168.806Z" fill="white"/>
<g style="mix-blend-mode:soft-light">
<g style="mix-blend-mode:soft-light">
<path d="M408.457 145.391L410.092 142.785L418.97 150.908L417.597 152.889L408.457 145.391Z" fill="white"/>
</g>
</g>
<g style="mix-blend-mode:soft-light">
<g style="mix-blend-mode:soft-light">
<path d="M419.19 145.391L417.555 142.785L408.678 150.908L410.036 152.889L419.19 145.391Z" fill="white"/>
</g>
</g>
<path d="M651.108 144.554H571.621V148.714H651.108V144.554Z" fill="white"/>
<path d="M153.323 84.4969V120.492L194.585 120.873L195.14 83.3389L153.323 84.4969Z" fill="url(#paint75_linear_317_6599)"/>
<path d="M195.14 83.3389L197.826 88.0779L196.483 120.827L194.585 120.873L195.14 83.3389V83.3389Z" fill="url(#paint76_linear_317_6599)"/>
<path d="M160.697 96.6418L164.508 90.8818L185.11 108.925L181.941 113.329L160.697 96.6418Z" fill="white"/>
<path d="M185.636 96.6418L181.825 90.8818L161.224 108.925L164.377 113.329L185.636 96.6418Z" fill="white"/>
<path opacity="0.81" d="M249.572 508.233H108.396C105.376 508.23 102.476 506.994 100.315 504.791C98.1545 502.588 96.9055 499.59 96.8335 496.438L94.2055 375.592C94.1685 373.983 94.4405 372.383 95.0055 370.886C95.5705 369.389 96.4165 368.025 97.4945 366.875C98.5616 365.732 99.8496 364.818 101.28 364.188C102.695 363.567 104.224 363.247 105.769 363.248H252.74C254.285 363.247 255.814 363.57 257.237 364.196C258.66 364.822 259.949 365.741 261.027 366.895C262.112 368.061 262.957 369.428 263.513 370.92C264.077 372.427 264.346 374.029 264.304 375.637L261.136 496.499C261.052 499.641 259.797 502.626 257.637 504.817C255.477 507.008 252.584 508.234 249.572 508.233V508.233Z" fill="url(#paint77_linear_317_6599)"/>
<path d="M249.572 508.616H108.397C105.282 508.597 102.295 507.315 100.069 505.04C97.8431 502.765 96.5522 499.675 96.4682 496.425L93.8401 375.564C93.8031 373.905 94.0841 372.256 94.6671 370.712C95.2442 369.179 96.1167 367.774 97.2352 366.577C98.3472 365.392 99.6741 364.45 101.14 363.808C102.599 363.167 104.176 362.837 105.769 362.839H252.741C254.335 362.836 255.914 363.168 257.384 363.813C258.854 364.458 260.184 365.406 261.296 366.599C262.408 367.792 263.28 369.204 263.86 370.755C264.44 372.311 264.715 373.965 264.67 375.625L261.501 496.486C261.436 499.737 260.149 502.831 257.917 505.101C255.685 507.371 252.688 508.633 249.572 508.616V508.616ZM105.769 363.631C104.272 363.628 102.791 363.936 101.42 364.537C100.044 365.139 98.7961 366.023 97.7521 367.137C96.7081 368.251 95.8882 369.571 95.3422 371.021C94.7962 372.471 94.5331 374.021 94.5701 375.579L97.1981 496.44C97.2851 499.486 98.5011 502.378 100.59 504.507C102.679 506.636 105.478 507.836 108.397 507.854H249.572C252.493 507.867 255.303 506.683 257.397 504.558C259.491 502.433 260.702 499.534 260.771 496.486L263.94 375.64C263.981 374.081 263.722 372.529 263.177 371.068C262.632 369.613 261.814 368.287 260.77 367.167C259.726 366.047 258.477 365.158 257.098 364.551C255.726 363.945 254.242 363.631 252.741 363.631H105.769Z" fill="#473DA2"/>
<path d="M206.5 387.968H132.255V391.29H206.5V387.968ZM169.37 396.028H132.255V399.35H169.37V396.028ZM169.37 402.765H132.255V406.087H169.37V402.765ZM203.083 402.765H173.546V406.087H203.083V402.765ZM192.104 409.501H132.255V412.823H192.104V409.501ZM153.557 416.235H132.255V419.557H153.557V416.235ZM194.775 436.458H157.938V439.78H194.775V436.458ZM199.024 422.987H132.255V426.309H199.024V422.987ZM183.621 429.724H132.255V433.046H183.621V429.724ZM156.419 436.458H132.255V439.78H156.419V436.458ZM169.37 443.194H132.255V446.517H169.37V443.194ZM142.899 449.931H132.255V453.253H142.899V449.931ZM185.927 449.931H147.293V453.253H185.927V449.931ZM194.775 456.466H157.938V459.788H194.775V456.466ZM156.419 456.466H132.255V459.788H156.419V456.466ZM169.37 463.202H132.255V466.524H169.37V463.202ZM142.899 469.939H132.255V473.261H142.899V469.939ZM185.927 469.939H147.293V473.261H185.927V469.939Z" fill="white"/>
<path d="M628.389 109.976C628.389 111.323 628.006 112.64 627.289 113.76C626.572 114.88 625.553 115.754 624.36 116.269C623.173 116.784 621.856 116.92 620.589 116.657C619.323 116.394 618.16 115.745 617.247 114.793C616.328 113.827 615.708 112.616 615.461 111.305C615.21 109.984 615.339 108.619 615.833 107.369C616.318 106.137 617.153 105.074 618.236 104.312C619.299 103.567 620.565 103.167 621.862 103.164C623.593 103.164 625.253 103.882 626.477 105.159C627.701 106.436 628.389 108.169 628.389 109.976V109.976Z" fill="url(#paint78_linear_317_6599)"/>
<path d="M16.7625 267.912C16.7655 269.593 16.2905 271.236 15.3985 272.634C14.5065 274.032 13.2355 275.122 11.7495 275.767C10.27 276.411 8.62736 276.581 7.04746 276.253C5.46846 275.926 4.01846 275.118 2.87946 273.93C1.73293 272.726 0.95979 271.215 0.653458 269.58C0.340458 267.932 0.502458 266.224 1.11946 264.672C1.73646 263.12 2.78146 261.795 4.12146 260.864C5.44761 259.937 7.027 259.439 8.64546 259.439C9.71426 259.44 10.7716 259.66 11.7525 260.084C12.7375 260.51 13.6325 261.134 14.3865 261.921C15.145 262.716 15.7427 263.649 16.1465 264.67C16.5545 265.698 16.7645 266.8 16.7645 267.912H16.7625Z" fill="url(#paint79_linear_317_6599)"/>
<path d="M641.034 116.788C644.639 116.788 647.561 113.738 647.561 109.976C647.561 106.214 644.639 103.164 641.034 103.164C637.429 103.164 634.508 106.214 634.508 109.976C634.508 113.738 637.43 116.788 641.034 116.788Z" fill="url(#paint80_linear_317_6599)"/>
<path d="M220.268 161.607C222.816 161.607 224.882 159.451 224.882 156.791C224.882 154.131 222.816 151.976 220.268 151.976C217.72 151.976 215.654 154.132 215.654 156.791C215.654 159.45 217.72 161.607 220.268 161.607Z" fill="url(#paint81_linear_317_6599)"/>
<path d="M529.309 374.101C531.857 374.101 533.923 371.945 533.923 369.285C533.923 366.625 531.857 364.47 529.309 364.47C526.761 364.47 524.695 366.626 524.695 369.285C524.695 371.944 526.761 374.101 529.309 374.101Z" fill="url(#paint82_linear_317_6599)"/>
<path d="M49.6434 421.6C51.9174 421.6 53.7604 419.676 53.7604 417.302C53.7604 414.928 51.9174 413.005 49.6434 413.005C47.3694 413.005 45.5264 414.929 45.5264 417.302C45.5264 419.675 47.3694 421.6 49.6434 421.6Z" fill="url(#paint83_linear_317_6599)"/>
<path opacity="0.73" d="M599.334 475.683H510.196C506.746 475.685 503.432 474.287 500.952 471.784C498.472 469.281 497.023 465.871 496.909 462.272L494.923 401.088C494.864 399.23 495.164 397.377 495.807 395.632C496.449 393.894 497.419 392.308 498.66 390.969C499.889 389.639 501.376 388.574 503.03 387.837C504.673 387.109 506.44 386.733 508.225 386.732H601.129C602.911 386.734 604.673 387.108 606.313 387.833C607.953 388.558 609.438 389.619 610.678 390.953C611.918 392.287 612.889 393.868 613.534 395.6C614.179 397.332 614.484 399.184 614.431 401.042L612.635 462.242C612.525 465.847 611.075 469.265 608.592 471.774C606.109 474.283 602.789 475.685 599.334 475.683V475.683Z" fill="url(#paint84_linear_317_6599)"/>
<path d="M599.334 476.064H510.196C506.659 476.078 503.256 474.654 500.707 472.094C498.158 469.534 496.666 466.038 496.545 462.349L494.559 401.164C494.496 399.25 494.803 397.342 495.462 395.555C496.113 393.779 497.109 392.15 498.393 390.761C499.668 389.384 501.196 388.29 502.885 387.543C504.566 386.797 506.385 386.412 508.225 386.412H601.13C602.96 386.411 604.771 386.794 606.456 387.537C608.153 388.289 609.679 389.379 610.941 390.74C612.216 392.11 613.213 393.733 613.876 395.513C614.539 397.293 614.851 399.194 614.796 401.103L613 462.242C612.901 465.952 611.417 469.474 608.863 472.056C606.309 474.638 602.89 476.077 599.334 476.064V476.064ZM508.225 387.113C506.489 387.114 504.772 387.479 503.174 388.187C501.576 388.895 500.131 389.93 498.924 391.233C497.717 392.536 496.774 394.077 496.149 395.767C495.523 397.464 495.231 399.265 495.289 401.072L497.275 462.242C497.374 465.745 498.78 469.07 501.194 471.507C503.608 473.944 506.838 475.3 510.196 475.286H599.334C602.702 475.304 605.943 473.943 608.361 471.496C610.779 469.049 612.183 465.71 612.27 462.196L614.066 401.011C614.119 399.204 613.823 397.404 613.197 395.718C612.571 394.032 611.626 392.495 610.42 391.197C609.225 389.908 607.78 388.876 606.173 388.164C604.577 387.459 602.862 387.097 601.13 387.098L508.225 387.113V387.113Z" fill="#953DA2"/>
<g style="mix-blend-mode:multiply">
<g style="mix-blend-mode:multiply">
<path d="M594.428 396.576H512.795V447.185H594.428V396.576Z" fill="#D1D4FB"/>
</g>
</g>
<path d="M546.377 409.134V434.629L567.242 420.715L546.377 409.134Z" fill="white"/>
<g style="mix-blend-mode:multiply">
<g style="mix-blend-mode:multiply">
<path d="M594.428 456.496H512.795V461.129H594.428V456.496Z" fill="#D1D4FB"/>
</g>
</g>
<path d="M533.922 456.496H512.795V461.129H533.922V456.496Z" fill="white"/>
<path fill-rule="evenodd" clip-rule="evenodd" d="M452.976 380.593L448.728 393.302C451.078 386.277 454.466 381.72 452.976 380.593ZM448.728 393.302L444.45 406.027C445.53 405.691 446.362 400.342 448.728 393.302ZM452.976 380.593L448.728 393.302C451.078 386.277 454.466 381.72 452.976 380.593ZM448.728 393.302L444.45 406.027C445.53 405.691 446.362 400.342 448.728 393.302ZM461.021 404.335L465.168 406.773L469.636 394.049L464.847 393.21C464.932 392.745 465.005 392.277 465.066 391.808C465.401 389.709 465.538 387.581 465.475 385.454L470.483 382.177L468.19 370.961L463.387 375.762C462.745 374.39 461.903 373.13 460.89 372.028C460.631 371.726 460.354 371.441 460.058 371.175L462.978 364.104L455.167 361.452L453.298 368.584C451.461 368.617 449.655 369.059 448.012 369.879L447.151 363.144L438.551 369.925L440.537 375.899C438.905 377.859 437.5 379.995 436.346 382.269L432.199 379.831L427.732 392.555L432.521 393.393C432.03 395.946 431.82 398.548 431.893 401.15L426.885 404.426L429.162 415.642L433.966 410.857C434.746 412.602 435.865 414.159 437.251 415.429L434.331 422.515L442.011 425.639L443.194 421.068L444.012 418.02C445.852 417.978 447.66 417.536 449.312 416.724L450.158 423.46L458.758 416.663L456.773 410.705C458.037 409.176 459.166 407.539 460.145 405.813C460.496 405.341 460.759 404.838 461.021 404.335ZM448.728 393.302C446.362 400.342 448.728 407.581 444.45 406.027C440.172 404.473 438.609 397.493 440.975 390.483C443.341 383.473 448.713 379.023 452.976 380.593C457.239 382.163 451.078 386.277 448.728 393.302V393.302ZM452.976 380.593L448.728 393.302C451.078 386.277 454.466 381.72 452.976 380.593ZM448.728 393.302L444.45 406.027C445.53 405.691 446.362 400.342 448.728 393.302Z" fill="url(#paint85_linear_317_6599)"/>
<path fill-rule="evenodd" clip-rule="evenodd" d="M465.167 406.771L469.635 394.046L465.065 391.806L464.335 391.44L464.817 384.43L469.869 381.855L468.189 370.96L457.166 367.225L459.195 372.27L463.035 364.102L455.224 361.451L452.026 360.368L444.332 357.229L442.872 362.715L436.17 359.392L427.614 366.235L430.213 373.58L422.182 396.85L418.211 411.952L425.847 412.822L423.35 418.81L431.06 421.949L442.069 425.684L440.302 421.995L439.192 419.785L443.251 421.172L450.216 423.534L458.816 416.737L453.501 410.201L460.203 405.887L465.167 406.771V406.771ZM440.974 390.48C443.339 383.455 448.712 379.02 452.975 380.59L448.727 393.299L444.449 406.024C440.171 404.454 438.608 397.49 440.974 390.48V390.48Z" fill="url(#paint86_linear_317_6599)"/>
<path fill-rule="evenodd" clip-rule="evenodd" d="M454.144 403.025L458.612 390.3L453.823 389.462C454.302 386.91 454.517 384.316 454.465 381.72L459.429 378.429L457.137 367.213L452.333 371.998C451.558 370.25 450.439 368.692 449.048 367.426L451.968 360.355L444.274 357.216L442.273 364.835C440.439 364.871 438.635 365.308 436.988 366.116L436.141 359.395L427.614 366.237L429.585 372.211C427.961 374.167 426.555 376.309 425.395 378.596L421.248 376.158L416.795 388.883L421.584 389.721C421.088 392.27 420.873 394.866 420.942 397.462L415.934 400.739L418.211 411.955L423.015 407.17C423.797 408.913 424.915 410.47 426.3 411.741L423.38 418.812L431.075 421.936L433.06 414.317C434.9 414.277 436.709 413.835 438.36 413.021L439.207 419.757L447.807 412.96L445.821 407.002C447.446 405.046 448.852 402.904 450.012 400.617L454.144 403.025V403.025ZM433.425 402.278C429.147 400.754 427.585 393.744 429.95 386.734C432.315 379.724 437.689 375.274 441.967 376.844C446.245 378.414 447.807 385.362 445.442 392.388C443.077 399.414 437.703 403.832 433.425 402.278Z" fill="url(#paint87_linear_317_6599)"/>
<g style="mix-blend-mode:multiply" opacity="0.5">
<g style="mix-blend-mode:multiply" opacity="0.5">
<path fill-rule="evenodd" clip-rule="evenodd" d="M470.482 382.178L459.473 378.429L454.465 381.705L465.474 385.454L470.482 382.178Z" fill="#601734"/>
</g>
</g>
<g style="mix-blend-mode:soft-light">
<g style="mix-blend-mode:soft-light">
<path fill-rule="evenodd" clip-rule="evenodd" d="M458.816 416.678L447.792 412.929L445.807 406.955L456.83 410.704L458.816 416.678Z" fill="#B3D9FF"/>
</g>
</g>
<g style="mix-blend-mode:multiply" opacity="0.5">
<g style="mix-blend-mode:multiply" opacity="0.5">
<path fill-rule="evenodd" clip-rule="evenodd" d="M449.105 367.425L455.136 369.253L457.18 367.227L461.195 368.583L463.049 364.102L452.04 360.354L449.105 367.425V367.425Z" fill="#601734"/>
</g>
</g>
<g style="mix-blend-mode:multiply" opacity="0.5">
<g style="mix-blend-mode:multiply" opacity="0.5">
<path fill-rule="evenodd" clip-rule="evenodd" d="M433.047 414.284L438.814 416.783L438.347 412.988C436.735 413.904 434.9 414.353 433.047 414.284V414.284Z" fill="#601734"/>
</g>
</g>
<g style="mix-blend-mode:multiply" opacity="0.5">
<g style="mix-blend-mode:multiply" opacity="0.5">
<path fill-rule="evenodd" clip-rule="evenodd" d="M433.938 379.798L443.661 385.162C444.382 384.14 445.222 383.214 446.158 382.404C446.158 382.404 443.618 371.219 433.938 379.798V379.798Z" fill="#601734"/>
</g>
</g>
<path d="M210.909 0.438477L220.283 20.0205L214.019 22.9925L205.259 5.01048L210.909 0.438477V0.438477Z" fill="#FF1D9C"/>
<path d="M0 456.603L8.673 466.539L12.075 462.44L3.884 453.037L0 456.603Z" fill="#6877FF"/>
<path d="M440.624 119.926L431.893 125.443L428.389 118.524L437.938 112.703L440.624 119.926V119.926ZM483.61 469.983L471.097 479.264L467.593 472.33L479.741 464.924L483.61 469.983V469.983Z" fill="#4F31E0"/>
<path d="M393.522 77.1971L382.775 47.8311L410.648 53.9271L393.522 77.1971ZM383.929 48.8671L393.726 75.6571L409.349 54.4141L383.929 48.8671V48.8671ZM480.516 476.802L471.092 490.306L471.683 490.755L481.107 477.251L480.516 476.802ZM381.929 369.528L371.781 356.346L372.351 355.874L382.498 369.041L381.929 369.528V369.528ZM68.9903 462.06L48.7393 446.729L49.1623 446.105L69.4133 461.435L68.9903 462.06V462.06Z" fill="#744CA2"/>
<path d="M66.3539 443.486L51.1969 464.251L51.7779 464.713L66.9349 443.947L66.3539 443.486V443.486ZM23.5539 229.412L23.2139 230.087L36.3199 237.275L36.6599 236.6L23.5539 229.412ZM539.807 52.8757L539.267 52.3727L554.408 34.3447L554.948 34.8477L539.807 52.8757ZM245.651 96.4617L244.997 96.8007L251.767 111.004L252.421 110.665L245.651 96.4607V96.4617ZM155.291 335.479L137.887 350.673L138.355 351.257L155.759 336.064L155.291 335.479V335.479Z" fill="#744CA2"/>
</g>
<defs>
<filter id="filter0_f_317_6599" x="22.1074" y="-24.1631" width="512.684" height="532.473" filterUnits="userSpaceOnUse" color-interpolation-filters="sRGB">
<feFlood flood-opacity="0" result="BackgroundImageFix"/>
<feBlend mode="normal" in="SourceGraphic" in2="BackgroundImageFix" result="shape"/>
<feGaussianBlur stdDeviation="15" result="effect1_foregroundBlur_317_6599"/>
</filter>
<linearGradient id="paint0_linear_317_6599" x1="-654.985" y1="108157" x2="247126" y2="155026" gradientUnits="userSpaceOnUse">
<stop stop-color="#319C00"/>
<stop offset="1" stop-color="#BAE64A"/>
</linearGradient>
<linearGradient id="paint1_linear_317_6599" x1="8180.01" y1="33373.1" x2="2076.35" y2="25830.1" gradientUnits="userSpaceOnUse">
<stop stop-color="#DBCCFF"/>
<stop offset="1" stop-color="#D1BBFF"/>
</linearGradient>
<linearGradient id="paint2_linear_317_6599" x1="8279.61" y1="33735.3" x2="2184.51" y2="26199.6" gradientUnits="userSpaceOnUse">
<stop stop-color="#B5A6E7"/>
<stop offset="1" stop-color="#7760BF"/>
</linearGradient>
<linearGradient id="paint3_linear_317_6599" x1="3355.53" y1="13290.8" x2="2280.08" y2="11924.6" gradientUnits="userSpaceOnUse">
<stop stop-color="#B5A6E7"/>
<stop offset="1" stop-color="#7760BF"/>
</linearGradient>
<linearGradient id="paint4_linear_317_6599" x1="1200.06" y1="1679.44" x2="1285.07" y2="1602.43" gradientUnits="userSpaceOnUse">
<stop stop-color="#8B8BE0"/>
<stop offset="1" stop-color="#A177B7"/>
</linearGradient>
<linearGradient id="paint5_linear_317_6599" x1="2133.93" y1="4175.45" x2="2090.78" y2="4060.12" gradientUnits="userSpaceOnUse">
<stop stop-color="white"/>
<stop offset="1" stop-color="#A177B7"/>
</linearGradient>
<linearGradient id="paint6_linear_317_6599" x1="2787.97" y1="14199" x2="1493.57" y2="13006.3" gradientUnits="userSpaceOnUse">
<stop/>
<stop offset="1" stop-color="white"/>
</linearGradient>
<linearGradient id="paint7_linear_317_6599" x1="56971.5" y1="75680.7" x2="56971.5" y2="57200.9" gradientUnits="userSpaceOnUse">
<stop stop-color="#6456C0"/>
<stop offset="1" stop-color="#5F2C95"/>
</linearGradient>
<radialGradient id="paint8_radial_317_6599" cx="0" cy="0" r="1" gradientUnits="userSpaceOnUse" gradientTransform="translate(-1816.24 31506.5) rotate(13.5374) scale(1549.99 9704.59)">
<stop stop-color="#4B474B"/>
<stop offset="1"/>
</radialGradient>
<radialGradient id="paint9_radial_317_6599" cx="0" cy="0" r="1" gradientUnits="userSpaceOnUse" gradientTransform="translate(17008.8 27509.4) rotate(-16.2985) scale(1625.76 9598.99)">
<stop stop-color="#4B474B"/>
<stop offset="1"/>
</radialGradient>
<linearGradient id="paint10_linear_317_6599" x1="8883.58" y1="48816.1" x2="10049.9" y2="48816.1" gradientUnits="userSpaceOnUse">
<stop stop-color="#9E8CEF"/>
<stop offset="1" stop-color="#CAAFEE"/>
</linearGradient>
<linearGradient id="paint11_linear_317_6599" x1="11660.3" y1="48816.1" x2="10492.9" y2="48816.1" gradientUnits="userSpaceOnUse">
<stop stop-color="#9E8CEF"/>
<stop offset="1" stop-color="#CAAFEE"/>
</linearGradient>
<linearGradient id="paint12_linear_317_6599" x1="39066" y1="75680.7" x2="39066" y2="57200.9" gradientUnits="userSpaceOnUse">
<stop stop-color="#CCCCFF"/>
<stop offset="1" stop-color="#755CBB"/>
</linearGradient>
<linearGradient id="paint13_linear_317_6599" x1="4468.82" y1="18456.7" x2="4468.82" y2="17082" gradientUnits="userSpaceOnUse">
<stop stop-color="#CCCCFF"/>
<stop offset="1" stop-color="#755CBB"/>
</linearGradient>
<linearGradient id="paint14_linear_317_6599" x1="12046.9" y1="17585.5" x2="12046.9" y2="16266.2" gradientUnits="userSpaceOnUse">
<stop stop-color="#CCCCFF"/>
<stop offset="1" stop-color="#755CBB"/>
</linearGradient>
<linearGradient id="paint15_linear_317_6599" x1="16297.8" y1="11695.1" x2="16297.8" y2="8756.1" gradientUnits="userSpaceOnUse">
<stop stop-color="#D5CDF8"/>
<stop offset="1" stop-color="#F3EDFB"/>
</linearGradient>
<linearGradient id="paint16_linear_317_6599" x1="14867.2" y1="10200.3" x2="17730.3" y2="10200.3" gradientUnits="userSpaceOnUse">
<stop stop-color="#CCCCFF"/>
<stop offset="1" stop-color="#755CBB"/>
</linearGradient>
<linearGradient id="paint17_linear_317_6599" x1="70800.2" y1="117739" x2="70800.2" y2="42934.8" gradientUnits="userSpaceOnUse">
<stop stop-color="#9E8CEF"/>
<stop offset="1" stop-color="#CAAFEE"/>
</linearGradient>
<linearGradient id="paint18_linear_317_6599" x1="11378.3" y1="34269.9" x2="15449.5" y2="34269.9" gradientUnits="userSpaceOnUse">
<stop stop-color="#CCCCFF"/>
<stop offset="1" stop-color="#755CBB"/>
</linearGradient>
<linearGradient id="paint19_linear_317_6599" x1="11068" y1="43175.4" x2="11068" y2="26824.2" gradientUnits="userSpaceOnUse">
<stop stop-color="#9E8CEF"/>
<stop offset="1" stop-color="#DAC7F3"/>
</linearGradient>
<linearGradient id="paint20_linear_317_6599" x1="31980.5" y1="28166.1" x2="38740.6" y2="28166.1" gradientUnits="userSpaceOnUse">
<stop stop-color="#A999F1"/>
<stop offset="1" stop-color="#DAC7F3"/>
</linearGradient>
<linearGradient id="paint21_linear_317_6599" x1="4016.81" y1="6591.64" x2="4016.81" y2="5453.79" gradientUnits="userSpaceOnUse">
<stop offset="0.02" stop-color="#FFC2A9"/>
<stop offset="1" stop-color="#FF9595"/>
</linearGradient>
<linearGradient id="paint22_linear_317_6599" x1="4185.96" y1="10731.7" x2="4185.96" y2="7617.55" gradientUnits="userSpaceOnUse">
<stop stop-color="#FFEADB"/>
<stop offset="0.99" stop-color="#C27CB6"/>
</linearGradient>
<linearGradient id="paint23_linear_317_6599" x1="8245.24" y1="19738.3" x2="8245.24" y2="12339.4" gradientUnits="userSpaceOnUse">
<stop offset="0.02" stop-color="#FFC2A9"/>
<stop offset="1" stop-color="#FF9595"/>
</linearGradient>
<linearGradient id="paint24_linear_317_6599" x1="4056.91" y1="5959.57" x2="4728.55" y2="5959.57" gradientUnits="userSpaceOnUse">
<stop offset="0.02" stop-color="#D1A1D6"/>
<stop offset="0.99" stop-color="#BD89C4"/>
</linearGradient>
<linearGradient id="paint25_linear_317_6599" x1="40571.4" y1="32394.3" x2="40571.4" y2="19164.6" gradientUnits="userSpaceOnUse">
<stop offset="0.02" stop-color="#FFC2A9"/>
<stop offset="1" stop-color="#FF9595"/>
</linearGradient>
<linearGradient id="paint26_linear_317_6599" x1="25889.3" y1="14086.2" x2="25889.3" y2="10822.2" gradientUnits="userSpaceOnUse">
<stop stop-color="#FFEADB"/>
<stop offset="0.99" stop-color="#C27CB6"/>
</linearGradient>
<linearGradient id="paint27_linear_317_6599" x1="13273.5" y1="5930" x2="13273.5" y2="5273.57" gradientUnits="userSpaceOnUse">
<stop stop-color="#FFB0B0"/>
<stop offset="0.98" stop-color="#FFC2A9"/>
</linearGradient>
<linearGradient id="paint28_linear_317_6599" x1="6788.36" y1="3411.87" x2="6788.36" y2="3214.47" gradientUnits="userSpaceOnUse">
<stop stop-color="#FFB0B0"/>
<stop offset="0.98" stop-color="#FFC2A9"/>
</linearGradient>
<linearGradient id="paint29_linear_317_6599" x1="11683.3" y1="7176.71" x2="12310.3" y2="7176.71" gradientUnits="userSpaceOnUse">
<stop offset="0.02" stop-color="#D1A1D6"/>
<stop offset="0.99" stop-color="#BD89C4"/>
</linearGradient>
<linearGradient id="paint30_linear_317_6599" x1="43932.6" y1="44757.6" x2="43932.6" y2="28171.7" gradientUnits="userSpaceOnUse">
<stop stop-color="#CCCCFF"/>
<stop offset="1" stop-color="#755CBB"/>
</linearGradient>
<linearGradient id="paint31_linear_317_6599" x1="29469" y1="70569.2" x2="72050.6" y2="70569.2" gradientUnits="userSpaceOnUse">
<stop stop-color="#CCCCFF"/>
<stop offset="1" stop-color="#755CBB"/>
</linearGradient>
<linearGradient id="paint32_linear_317_6599" x1="13100.6" y1="5521.64" x2="14655.3" y2="5521.64" gradientUnits="userSpaceOnUse">
<stop stop-color="#CCEDFF"/>
<stop offset="1" stop-color="#755CBB"/>
</linearGradient>
<linearGradient id="paint33_linear_317_6599" x1="17004.1" y1="9726.55" x2="20365.7" y2="9726.55" gradientUnits="userSpaceOnUse">
<stop stop-color="#CCEDFF"/>
<stop offset="1" stop-color="#755CBB"/>
</linearGradient>
<linearGradient id="paint34_linear_317_6599" x1="18314.9" y1="9419.33" x2="22151.2" y2="9419.33" gradientUnits="userSpaceOnUse">
<stop stop-color="#CCEDFF"/>
<stop offset="1" stop-color="#755CBB"/>
</linearGradient>
<linearGradient id="paint35_linear_317_6599" x1="19575.8" y1="23150.9" x2="19575.8" y2="17886.9" gradientUnits="userSpaceOnUse">
<stop stop-color="#CCEDFF"/>
<stop offset="1" stop-color="#755CBB"/>
</linearGradient>
<linearGradient id="paint36_linear_317_6599" x1="8917.29" y1="17961.6" x2="8917.29" y2="14937.7" gradientUnits="userSpaceOnUse">
<stop stop-color="#CCEDFF"/>
<stop offset="1" stop-color="#755CBB"/>
</linearGradient>
<linearGradient id="paint37_linear_317_6599" x1="5276.8" y1="10665.7" x2="5276.8" y2="8938.23" gradientUnits="userSpaceOnUse">
<stop stop-color="#CCEDFF"/>
<stop offset="1" stop-color="#755CBB"/>
</linearGradient>
<linearGradient id="paint38_linear_317_6599" x1="3279.48" y1="9296.34" x2="3537.2" y2="9296.34" gradientUnits="userSpaceOnUse">
<stop stop-color="#CCEDFF"/>
<stop offset="1" stop-color="#755CBB"/>
</linearGradient>
<linearGradient id="paint39_linear_317_6599" x1="4338.54" y1="24555.8" x2="4338.54" y2="18624.1" gradientUnits="userSpaceOnUse">
<stop stop-color="#CCCCFF"/>
<stop offset="1" stop-color="#755CBB"/>
</linearGradient>
<linearGradient id="paint40_linear_317_6599" x1="6655.83" y1="12304" x2="6655.83" y2="10683.6" gradientUnits="userSpaceOnUse">
<stop stop-color="#CCCCFF"/>
<stop offset="1" stop-color="#755CBB"/>
</linearGradient>
<linearGradient id="paint41_linear_317_6599" x1="12343.7" y1="9415.82" x2="12343.7" y2="8469.21" gradientUnits="userSpaceOnUse">
<stop stop-color="#CCCCFF"/>
<stop offset="1" stop-color="#755CBB"/>
</linearGradient>
<linearGradient id="paint42_linear_317_6599" x1="3043.94" y1="3147.07" x2="3043.94" y2="3016.48" gradientUnits="userSpaceOnUse">
<stop stop-color="#CCEDFF"/>
<stop offset="1" stop-color="#755CBB"/>
</linearGradient>
<linearGradient id="paint43_linear_317_6599" x1="3763.47" y1="18284.8" x2="3763.47" y2="14382.9" gradientUnits="userSpaceOnUse">
<stop stop-color="#CCCCFF"/>
<stop offset="1" stop-color="#755CBB"/>
</linearGradient>
<linearGradient id="paint44_linear_317_6599" x1="10977.9" y1="11711.2" x2="10977.9" y2="9503.89" gradientUnits="userSpaceOnUse">
<stop stop-color="#CCEDFF"/>
<stop offset="1" stop-color="#755CBB"/>
</linearGradient>
<linearGradient id="paint45_linear_317_6599" x1="13355.7" y1="15656.4" x2="13355.7" y2="11449.9" gradientUnits="userSpaceOnUse">
<stop stop-color="#CCEDFF"/>
<stop offset="1" stop-color="#755CBB"/>
</linearGradient>
<linearGradient id="paint46_linear_317_6599" x1="18095" y1="12058.5" x2="22660.1" y2="12058.5" gradientUnits="userSpaceOnUse">
<stop stop-color="#CCCCFF"/>
<stop offset="1" stop-color="#755CBB"/>
</linearGradient>
<linearGradient id="paint47_linear_317_6599" x1="5718.89" y1="12271.3" x2="5718.89" y2="10607" gradientUnits="userSpaceOnUse">
<stop stop-color="#CCCCFF"/>
<stop offset="1" stop-color="#755CBB"/>
</linearGradient>
<linearGradient id="paint48_linear_317_6599" x1="16438.7" y1="42296.3" x2="16438.7" y2="27033.4" gradientUnits="userSpaceOnUse">
<stop stop-color="#CCCCFF"/>
<stop offset="1" stop-color="#755CBB"/>
</linearGradient>
<linearGradient id="paint49_linear_317_6599" x1="13722.2" y1="14475.3" x2="13722.2" y2="13221.6" gradientUnits="userSpaceOnUse">
<stop stop-color="#CCCCFF"/>
<stop offset="1" stop-color="#755CBB"/>
</linearGradient>
<linearGradient id="paint50_linear_317_6599" x1="19456.2" y1="7072.06" x2="19456.2" y2="6775.65" gradientUnits="userSpaceOnUse">
<stop stop-color="#CCCCFF"/>
<stop offset="1" stop-color="#755CBB"/>
</linearGradient>
<linearGradient id="paint51_linear_317_6599" x1="24951.3" y1="19807" x2="24951.3" y2="5956.57" gradientUnits="userSpaceOnUse">
<stop offset="0.02" stop-color="#FFC2A9"/>
<stop offset="1" stop-color="#FF9595"/>
</linearGradient>
<linearGradient id="paint52_linear_317_6599" x1="5633.38" y1="4265.06" x2="5633.38" y2="3060.26" gradientUnits="userSpaceOnUse">
<stop offset="0.02" stop-color="#FFC2A9"/>
<stop offset="1" stop-color="#FF9595"/>
</linearGradient>
<linearGradient id="paint53_linear_317_6599" x1="10426.7" y1="1360.97" x2="10431.1" y2="1288.54" gradientUnits="userSpaceOnUse">
<stop stop-color="#E1616A"/>
<stop offset="1" stop-color="#FF8883"/>
</linearGradient>
<linearGradient id="paint54_linear_317_6599" x1="23199.7" y1="9728.15" x2="23199.7" y2="3984.94" gradientUnits="userSpaceOnUse">
<stop stop-color="#FFEADB"/>
<stop offset="0.99" stop-color="#C27CB6"/>
</linearGradient>
<linearGradient id="paint55_linear_317_6599" x1="5469.41" y1="1532.31" x2="5469.41" y2="1306.99" gradientUnits="userSpaceOnUse">
<stop stop-color="#CF6074"/>
<stop offset="1" stop-color="#F37270"/>
</linearGradient>
<linearGradient id="paint56_linear_317_6599" x1="3613.59" y1="1412.68" x2="3613.59" y2="1242.14" gradientUnits="userSpaceOnUse">
<stop stop-color="#CF6074"/>
<stop offset="1" stop-color="#FF817F"/>
</linearGradient>
<linearGradient id="paint57_linear_317_6599" x1="4532.66" y1="3284.73" x2="4532.66" y2="2420.46" gradientUnits="userSpaceOnUse">
<stop stop-color="#FFEADB"/>
<stop offset="0.99" stop-color="#C27CB6"/>
</linearGradient>
<linearGradient id="paint58_linear_317_6599" x1="27221.5" y1="24188.5" x2="27221.5" y2="3827.32" gradientUnits="userSpaceOnUse">
<stop stop-color="#2E33A0"/>
<stop offset="1" stop-color="#0665A5"/>
</linearGradient>
<linearGradient id="paint59_linear_317_6599" x1="4624.8" y1="2662.37" x2="4624.8" y2="1578.87" gradientUnits="userSpaceOnUse">
<stop stop-color="#FFEADB"/>
<stop offset="0.99" stop-color="#8860C7"/>
</linearGradient>
<linearGradient id="paint60_linear_317_6599" x1="22191.3" y1="24162.3" x2="22191.3" y2="3823.12" gradientUnits="userSpaceOnUse">
<stop stop-color="#CCC2DB"/>
<stop offset="0.99" stop-color="#8860C7"/>
</linearGradient>
<linearGradient id="paint61_linear_317_6599" x1="10593.9" y1="1207.66" x2="10593.9" y2="1169.86" gradientUnits="userSpaceOnUse">
<stop stop-color="#776D7E"/>
<stop offset="1" stop-color="#9D68C2"/>
</linearGradient>
<linearGradient id="paint62_linear_317_6599" x1="8488.82" y1="201.369" x2="8488.82" y2="180.482" gradientUnits="userSpaceOnUse">
<stop stop-color="#1F77D1"/>
<stop offset="1" stop-color="#0686C9"/>
</linearGradient>
<linearGradient id="paint63_linear_317_6599" x1="11603.2" y1="736.643" x2="11603.2" y2="555.296" gradientUnits="userSpaceOnUse">
<stop stop-color="#1F77D1"/>
<stop offset="1" stop-color="#0686C9"/>
</linearGradient>
<linearGradient id="paint64_linear_317_6599" x1="2899.99" y1="759.415" x2="2899.99" y2="611.914" gradientUnits="userSpaceOnUse">
<stop stop-color="#1F77D1"/>
<stop offset="1" stop-color="#0686C9"/>
</linearGradient>
<linearGradient id="paint65_linear_317_6599" x1="4740.28" y1="3050.91" x2="4346.43" y2="2774.37" gradientUnits="userSpaceOnUse">
<stop stop-color="#FFEADB"/>
<stop offset="0.99" stop-color="#B060F4"/>
</linearGradient>
<linearGradient id="paint66_linear_317_6599" x1="2441.32" y1="1862.93" x2="2334.8" y2="1803.97" gradientUnits="userSpaceOnUse">
<stop stop-color="#FFEADB"/>
<stop offset="0.99" stop-color="#B060F4"/>
</linearGradient>
<linearGradient id="paint67_linear_317_6599" x1="8187.26" y1="300.249" x2="8823.05" y2="300.249" gradientUnits="userSpaceOnUse">
<stop stop-color="#1F77D1"/>
<stop offset="1" stop-color="#0686C9"/>
</linearGradient>
<linearGradient id="paint68_linear_317_6599" x1="3024.78" y1="2073.37" x2="3083.54" y2="2073.37" gradientUnits="userSpaceOnUse">
<stop stop-color="#1F77D1"/>
<stop offset="1" stop-color="#0686C9"/>
</linearGradient>
<linearGradient id="paint69_linear_317_6599" x1="3130.16" y1="820.834" x2="3198.21" y2="820.834" gradientUnits="userSpaceOnUse">
<stop stop-color="#1F77D1"/>
<stop offset="1" stop-color="#0686C9"/>
</linearGradient>
<linearGradient id="paint70_linear_317_6599" x1="103617" y1="2974.42" x2="170445" y2="2974.42" gradientUnits="userSpaceOnUse">
<stop stop-color="#9D68C2"/>
<stop offset="1" stop-color="#AEC2FF"/>
</linearGradient>
<linearGradient id="paint71_linear_317_6599" x1="36085.4" y1="20402.7" x2="36085.4" y2="13778.2" gradientUnits="userSpaceOnUse">
<stop stop-color="#CCEDFF"/>
<stop offset="1" stop-color="#9D68C2"/>
</linearGradient>
<linearGradient id="paint72_linear_317_6599" x1="20650.5" y1="7661.86" x2="20650.5" y2="6377.21" gradientUnits="userSpaceOnUse">
<stop stop-color="#CCEDFF"/>
<stop offset="1" stop-color="#9D68C2"/>
</linearGradient>
<linearGradient id="paint73_linear_317_6599" x1="22082.9" y1="7661.86" x2="22082.9" y2="6377.21" gradientUnits="userSpaceOnUse">
<stop stop-color="#CCEDFF"/>
<stop offset="1" stop-color="#9D68C2"/>
</linearGradient>
<linearGradient id="paint74_linear_317_6599" x1="19194.8" y1="7661.86" x2="19194.8" y2="6377.21" gradientUnits="userSpaceOnUse">
<stop stop-color="#CCEDFF"/>
<stop offset="1" stop-color="#9D68C2"/>
</linearGradient>
<linearGradient id="paint75_linear_317_6599" x1="7439.18" y1="4619.59" x2="7439.18" y2="3211.35" gradientUnits="userSpaceOnUse">
<stop stop-color="#D93DE3"/>
<stop offset="1" stop-color="#FF6DBA"/>
</linearGradient>
<linearGradient id="paint76_linear_317_6599" x1="830.488" y1="4619.59" x2="830.488" y2="3211.35" gradientUnits="userSpaceOnUse">
<stop stop-color="#A242EA"/>
<stop offset="1" stop-color="#FE117E"/>
</linearGradient>
<linearGradient id="paint77_linear_317_6599" x1="28671.6" y1="75196.1" x2="31296.2" y2="51697.7" gradientUnits="userSpaceOnUse">
<stop stop-color="#067EFF"/>
<stop offset="1" stop-color="#3E37A0"/>
</linearGradient>
<linearGradient id="paint78_linear_317_6599" x1="8732.76" y1="1694.25" x2="8732.76" y2="1508.64" gradientUnits="userSpaceOnUse">
<stop stop-color="#459FFF"/>
<stop offset="1" stop-color="#A96DFF"/>
</linearGradient>
<linearGradient id="paint79_linear_317_6599" x1="141.105" y1="4951.54" x2="141.105" y2="4663.85" gradientUnits="userSpaceOnUse">
<stop stop-color="#459FFF"/>
<stop offset="1" stop-color="#A96DFF"/>
</linearGradient>
<linearGradient id="paint80_linear_317_6599" x1="9001.91" y1="1694.28" x2="9001.91" y2="1508.67" gradientUnits="userSpaceOnUse">
<stop stop-color="#B31A8F"/>
<stop offset="1" stop-color="#FE117E"/>
</linearGradient>
<linearGradient id="paint81_linear_317_6599" x1="2248.29" y1="1708.4" x2="2248.29" y2="1615.65" gradientUnits="userSpaceOnUse">
<stop stop-color="#B31A8F"/>
<stop offset="1" stop-color="#FE117E"/>
</linearGradient>
<linearGradient id="paint82_linear_317_6599" x1="5409.14" y1="3967.43" x2="5409.14" y2="3874.67" gradientUnits="userSpaceOnUse">
<stop stop-color="#8642A0"/>
<stop offset="1" stop-color="#6456C0"/>
</linearGradient>
<linearGradient id="paint83_linear_317_6599" x1="454.287" y1="4036.65" x2="454.287" y2="3962.65" gradientUnits="userSpaceOnUse">
<stop stop-color="#8642A0"/>
<stop offset="1" stop-color="#6456C0"/>
</linearGradient>
<linearGradient id="paint84_linear_317_6599" x1="66789.9" y1="42699.2" x2="66789.9" y2="34786.9" gradientUnits="userSpaceOnUse">
<stop stop-color="#D906E3"/>
<stop offset="1" stop-color="#FF6DF9"/>
</linearGradient>
<linearGradient id="paint85_linear_317_6599" x1="19901.3" y1="27819.6" x2="20818.5" y2="23759.6" gradientUnits="userSpaceOnUse">
<stop stop-color="#1852A0"/>
<stop offset="1" stop-color="#067ED3"/>
</linearGradient>
<linearGradient id="paint86_linear_317_6599" x1="23136.8" y1="29527.1" x2="24683.4" y2="25355.3" gradientUnits="userSpaceOnUse">
<stop stop-color="#1852A0"/>
<stop offset="1" stop-color="#067ED3"/>
</linearGradient>
<linearGradient id="paint87_linear_317_6599" x1="19010.8" y1="27762.8" x2="20003.9" y2="23666.9" gradientUnits="userSpaceOnUse">
<stop stop-color="#188DC1"/>
<stop offset="1" stop-color="#06BFE7"/>
</linearGradient>
<clipPath id="clip0_317_6599">
<rect width="658" height="574" fill="white"/>
</clipPath>
</defs>
</svg>
