<svg width="50" height="50" viewBox="0 0 50 50" fill="none" xmlns="http://www.w3.org/2000/svg">
<g clip-path="url(#clip0_317_2)">
<path d="M26.0298 0.683743C26.5338 0.332743 27.1058 0.108743 27.7028 0.030743C28.3009 -0.0479671 28.9091 0.020339 29.4748 0.229743C30.2308 0.485743 30.8618 1.04474 31.3508 1.69974C31.7428 2.26974 31.9958 2.93674 32.0848 3.63774C32.1745 4.33824 32.0985 5.05001 31.8628 5.71574C31.5368 6.70874 30.8018 7.52074 29.9348 7.99374C29.0288 8.46374 27.9918 8.55774 27.0258 8.25574C26.4468 8.06073 25.9212 7.7334 25.4908 7.29974C25.0478 6.85378 24.7084 6.3157 24.4968 5.72374C24.2518 4.99074 24.1508 4.18674 24.3098 3.42174C24.4064 2.86875 24.6092 2.33969 24.9068 1.86374C25.1974 1.39841 25.5794 0.996959 26.0298 0.683743V0.683743ZM20.8588 11.2357C21.7758 10.3327 23.0358 9.92574 24.2658 9.91374H30.8738C31.8028 9.91974 32.7498 9.85674 33.6578 10.1247C34.9898 10.4737 36.1158 11.5217 36.6908 12.8487C36.915 13.3861 37.0721 13.949 37.1588 14.5247L38.5528 29.4547C38.5938 29.9227 38.6808 30.4277 38.4708 30.8687C38.3888 31.0767 38.2258 31.2267 38.0778 31.3777L38.0728 32.5367C38.8308 32.5897 39.6318 32.4027 40.3498 32.7407C40.5428 32.9157 40.7418 33.0897 40.8488 33.3447C41.0188 33.6757 40.9978 34.0687 40.9828 34.4337L40.9758 45.8717C40.9538 46.3887 40.6018 46.8127 40.1828 47.0327C40.097 47.0602 40.0116 47.0892 39.9268 47.1197L34.8498 47.1247C34.2838 46.9647 33.8058 46.4257 33.7888 45.7827V34.5197C33.7988 34.1957 33.7478 33.8597 33.8538 33.5487C33.9406 33.2715 34.1077 33.0261 34.3338 32.8437C34.5524 32.6675 34.8214 32.5656 35.1018 32.5527L36.7108 32.5407L36.7058 31.6297C36.2568 31.4057 35.8708 30.9677 35.8188 30.4217L35.5228 27.2787L34.7558 19.1657L34.4138 15.2407C34.3168 14.5297 34.1068 13.7417 33.4998 13.3397C33.2708 13.3397 33.0918 13.4957 32.9288 13.6457L32.9218 20.5567V22.6517V23.7867L32.9008 27.9777L32.9208 34.7007L32.9058 44.2177L32.9158 47.7187C32.8998 48.2697 32.7658 48.8437 32.3908 49.2447C32.1838 49.4827 31.9248 49.6617 31.6368 49.7667C31.3508 49.872 31.0422 49.9003 30.7418 49.8487C30.4418 49.7967 30.1578 49.6667 29.9158 49.4707C29.6707 49.27 29.4775 49.0131 29.3528 48.7217C29.1788 48.3557 29.1638 47.9357 29.1438 47.5347V32.6997L29.1748 29.7017C29.1513 29.5014 29.075 29.311 28.9538 29.1497C28.837 28.9933 28.6782 28.8733 28.4958 28.8037C28.2238 28.7597 27.9178 28.7487 27.6928 28.9447C27.3938 29.1447 27.2608 29.5347 27.2628 29.8987V47.3607C27.2628 47.7817 27.3008 48.2197 27.1458 48.6197C26.8288 49.4787 25.9138 50.0257 25.0628 49.8357C24.6538 49.7467 24.2848 49.5137 24.0128 49.1747C23.7408 48.8357 23.5828 48.4097 23.5628 47.9637V14.0877C23.5568 13.9117 23.5288 13.7377 23.4808 13.5697C23.2928 13.4437 23.0398 13.2487 22.8278 13.4217C22.3798 13.7887 22.1748 14.3977 22.0738 14.9727L20.7088 29.6117C20.2048 29.5567 19.6968 29.5887 19.1908 29.5807V22.6447C19.1908 22.1417 18.9628 21.6717 18.6738 21.2907L19.2108 15.4027C19.2618 13.8657 19.7778 12.2897 20.8548 11.2357H20.8588Z" fill="white"/>
<path d="M11.7326 22.7331C11.6846 21.9051 12.3396 21.1451 13.0896 21.0331L17.1726 21.0231C18.0356 20.9801 18.7986 21.8041 18.8036 22.7191L18.8116 30.0441H20.3546C20.9856 29.9901 21.5786 30.6151 21.5546 31.2881V46.3061C21.5616 46.5311 21.5096 46.7541 21.4046 46.9501C21.2996 47.1461 21.1466 47.3061 20.9616 47.4141C20.7166 47.5761 20.4296 47.5891 20.1536 47.5891L20.1496 49.7461C20.0366 49.8331 19.9336 49.9501 19.7956 49.9921C19.6466 50.0131 19.5076 49.9411 19.3686 49.9051L19.2476 49.7131L19.1906 49.0141V47.5831L11.2776 47.5911L11.2696 49.5991C11.2346 50.0031 10.7806 50.0681 10.4986 49.9191L10.3556 49.7221L10.3356 47.5991C9.95861 47.6111 9.59161 47.4731 9.30561 47.2101C8.85161 46.6381 9.03661 45.8521 9.02361 45.1701L9.00461 31.8931C9.04761 31.4771 8.94461 31.0201 9.15261 30.6431C9.24719 30.4739 9.38135 30.3301 9.54361 30.2241C9.70361 30.1201 9.88461 30.0601 10.0716 30.0481H11.7366L11.7306 22.7321L11.7326 22.7331ZM12.6976 22.8201L12.7036 29.5881H17.8556L17.8486 22.8201C17.8446 22.4361 17.5496 22.0411 17.1706 22.0621H13.3416C13.2516 22.0631 13.1636 22.0841 13.0816 22.1231C12.9996 22.1621 12.9266 22.2191 12.8656 22.2911C12.8047 22.3633 12.7588 22.4469 12.7306 22.5371C12.7016 22.6281 12.6906 22.7251 12.6986 22.8201H12.6976ZM10.5536 35.3841C10.3146 35.6631 10.3996 36.1081 10.6176 36.3721L10.9036 36.5411L19.3726 36.5581C19.6416 36.5871 19.8746 36.4161 20.0656 36.2341C20.1376 36.0171 20.2286 35.7641 20.1086 35.5461C20.0266 35.3141 19.8066 35.2091 19.6196 35.0951H11.1346C11.0236 35.0921 10.9136 35.1171 10.8136 35.1671C10.7136 35.2171 10.6246 35.2901 10.5546 35.3821L10.5536 35.3841Z" fill="white"/>
</g>
<defs>
<clipPath id="clip0_317_2">
<rect width="50" height="50" fill="white"/>
</clipPath>
</defs>
</svg>
