<svg width="161" height="70" viewBox="0 0 161 70" fill="none" xmlns="http://www.w3.org/2000/svg">
<path d="M8.81487 33.4536H23.1363V37.9665H3.48242V8.51172H22.3528V13.0245H8.81487V20.6415H20.4375V25.1544H8.81487V33.4536ZM43.356 37.5043C42.7031 37.7831 41.9051 38.0179 40.9619 38.2087C40.0188 38.4141 39.0249 38.5169 37.98 38.5169C36.4565 38.5169 35.0346 38.2967 33.7141 37.8564C32.3938 37.4161 31.2402 36.7484 30.2535 35.8532C29.2668 34.9579 28.4905 33.8278 27.9247 32.463C27.3587 31.0835 27.0757 29.4764 27.0757 27.642C27.0757 25.5873 27.4023 23.8261 28.0552 22.3585C28.7081 20.8909 29.5498 19.7022 30.5799 18.7923C31.6247 17.8677 32.7927 17.1926 34.0841 16.7669C35.39 16.3266 36.6741 16.1066 37.9365 16.1066C38.8798 16.1066 39.7866 16.1946 40.6572 16.3708C41.5277 16.5321 42.3186 16.7597 43.0296 17.0531V21.3019C42.3911 21.0231 41.7092 20.8029 40.9837 20.6415C40.2727 20.4653 39.5037 20.3773 38.6766 20.3773C37.8495 20.3773 37.0586 20.5093 36.3041 20.7736C35.5497 21.0231 34.8822 21.4266 34.3018 21.9843C33.7214 22.5419 33.2571 23.2831 32.9088 24.2077C32.5751 25.1176 32.4082 26.2184 32.4082 27.5098C32.4082 28.4491 32.5389 29.337 32.8 30.1735C33.0612 30.9953 33.4384 31.6998 33.9318 32.2869C34.4396 32.8739 35.0781 33.3509 35.8471 33.7177C36.6306 34.07 37.552 34.2462 38.6112 34.2462C39.5545 34.2462 40.4105 34.1508 41.1796 33.9599C41.9486 33.7691 42.6741 33.5343 43.356 33.2555V37.5043ZM62.6181 27.3117C62.6181 26.1817 62.4876 25.1837 62.2264 24.3178C61.9652 23.4519 61.6025 22.7255 61.1381 22.1384C60.6738 21.5514 60.1151 21.1111 59.4622 20.8176C58.8093 20.524 58.0982 20.3773 57.3292 20.3773C56.5747 20.3773 55.871 20.524 55.218 20.8176C54.5796 21.1111 54.0282 21.5514 53.5639 22.1384C53.0996 22.7255 52.7368 23.4519 52.4757 24.3178C52.2145 25.1837 52.0839 26.1817 52.0839 27.3117C52.0839 28.4418 52.2145 29.4398 52.4757 30.3057C52.7368 31.1715 53.0996 31.898 53.5639 32.485C54.0427 33.0574 54.6013 33.4977 55.2398 33.8059C55.8927 34.0994 56.6038 34.2462 57.3728 34.2462C58.1419 34.2462 58.8456 34.0994 59.484 33.8059C60.1224 33.4977 60.6738 33.0574 61.1381 32.485C61.6025 31.898 61.9652 31.1715 62.2264 30.3057C62.4876 29.4398 62.6181 28.4418 62.6181 27.3117ZM67.9506 27.3117C67.9506 28.9848 67.7039 30.511 67.2106 31.8906C66.7172 33.2702 66.0063 34.4515 65.0776 35.4349C64.1635 36.4182 63.0534 37.1813 61.7475 37.7243C60.4417 38.2527 58.9834 38.5169 57.3728 38.5169C55.7186 38.5169 54.2313 38.2527 52.9109 37.7243C51.6051 37.1813 50.495 36.4182 49.5809 35.4349C48.6668 34.4515 47.9629 33.2702 47.4697 31.8906C46.9909 30.511 46.7514 28.9848 46.7514 27.3117C46.7514 25.6387 46.9981 24.1123 47.4914 22.7328C47.9848 21.3532 48.6885 20.1718 49.6026 19.1886C50.5313 18.2053 51.6486 17.4494 52.9545 16.9211C54.2603 16.378 55.7186 16.1066 57.3292 16.1066C58.9834 16.1066 60.4634 16.378 61.7693 16.9211C63.0898 17.4494 64.207 18.2053 65.1211 19.1886C66.0352 20.1718 66.7318 21.3532 67.2106 22.7328C67.7039 24.1123 67.9506 25.6387 67.9506 27.3117Z" fill="white"/>
<path d="M85.0797 37.9662H79.7472V13.0242H70.3447V8.51139H94.4603V13.0242H85.0797V37.9662ZM105.974 34.3118C106.975 34.3118 108.02 34.2091 109.108 34.0037C110.197 33.7982 111.299 33.5047 112.417 33.1231V37.2837C111.749 37.5773 110.726 37.8561 109.348 38.1203C107.969 38.3844 106.54 38.5166 105.06 38.5166C103.565 38.5166 102.143 38.3258 100.794 37.9441C99.4591 37.548 98.2911 36.9169 97.2899 36.0509C96.2886 35.185 95.4906 34.0623 94.8956 32.6828C94.3152 31.3032 94.025 29.6302 94.025 27.6636C94.025 25.7264 94.3008 24.0313 94.8521 22.5784C95.4036 21.1255 96.1435 19.922 97.0722 18.9681C98.0009 18.0142 99.0601 17.3023 100.25 16.8327C101.454 16.3484 102.695 16.1062 103.972 16.1062C105.307 16.1062 106.533 16.3117 107.65 16.7226C108.782 17.1336 109.754 17.7794 110.567 18.6598C111.394 19.5404 112.032 20.6778 112.482 22.072C112.946 23.4516 113.178 25.0879 113.178 26.9812C113.164 27.715 113.142 28.3387 113.113 28.8524H99.2923C99.3647 29.8356 99.5825 30.6795 99.9452 31.3839C100.308 32.0737 100.78 32.6388 101.36 33.0791C101.955 33.5047 102.644 33.8202 103.428 34.0256C104.211 34.2164 105.06 34.3118 105.974 34.3118ZM103.906 20.1788C103.253 20.1788 102.673 20.3036 102.165 20.553C101.657 20.7879 101.215 21.1181 100.838 21.5437C100.475 21.9547 100.185 22.439 99.967 22.9966C99.7493 23.5544 99.6042 24.1486 99.5317 24.7797H107.824C107.824 24.1486 107.737 23.5544 107.563 22.9966C107.403 22.439 107.157 21.9547 106.823 21.5437C106.504 21.1181 106.097 20.7879 105.604 20.553C105.125 20.3036 104.559 20.1788 103.906 20.1788ZM133.159 37.5039C132.506 37.7827 131.708 38.0175 130.765 38.2083C129.822 38.4138 128.827 38.5166 127.783 38.5166C126.259 38.5166 124.838 38.2964 123.517 37.8561C122.196 37.4158 121.043 36.7481 120.057 35.8529C119.07 34.9576 118.293 33.8275 117.727 32.4626C117.161 31.0832 116.878 29.4761 116.878 27.6416C116.878 25.587 117.205 23.8258 117.858 22.3582C118.51 20.8906 119.353 19.7019 120.383 18.792C121.428 17.8674 122.595 17.1923 123.886 16.7666C125.193 16.3263 126.476 16.1062 127.739 16.1062C128.682 16.1062 129.59 16.1943 130.46 16.3705C131.33 16.5318 132.121 16.7594 132.832 17.0528V21.3015C132.194 21.0227 131.512 20.8025 130.786 20.6412C130.075 20.465 129.306 20.377 128.479 20.377C127.652 20.377 126.861 20.509 126.107 20.7732C125.353 21.0227 124.685 21.4262 124.105 21.984C123.524 22.5416 123.059 23.2828 122.711 24.2074C122.378 25.1173 122.211 26.218 122.211 27.5095C122.211 28.4488 122.342 29.3367 122.603 30.1732C122.864 30.995 123.241 31.6995 123.734 32.2866C124.242 32.8736 124.881 33.3506 125.65 33.7174C126.433 34.0697 127.355 34.2458 128.414 34.2458C129.357 34.2458 130.214 34.1505 130.982 33.9596C131.752 33.7688 132.477 33.534 133.159 33.2552V37.5039ZM143.018 14.7854C143.018 15.886 142.996 16.796 142.953 17.5151C142.923 18.2195 142.866 18.858 142.779 19.4304H142.866C143.171 19.0194 143.54 18.6084 143.976 18.1976C144.426 17.7866 144.912 17.4345 145.434 17.1409C145.971 16.8327 146.573 16.5832 147.24 16.3924C147.923 16.2016 148.67 16.1062 149.483 16.1062C150.179 16.1062 150.854 16.1796 151.506 16.3263C152.174 16.4585 152.791 16.6712 153.356 16.9647C153.937 17.2583 154.459 17.6398 154.924 18.1095C155.402 18.5791 155.802 19.1369 156.121 19.7825C156.397 20.3403 156.6 20.9714 156.73 21.6757C156.861 22.3803 156.926 23.2388 156.926 24.2514V37.9662H151.768V24.9559C151.768 24.2954 151.739 23.7597 151.681 23.3489C151.623 22.9233 151.522 22.5563 151.376 22.2482C151.071 21.6024 150.636 21.1474 150.071 20.8833C149.504 20.6191 148.859 20.4871 148.133 20.4871C147.132 20.5016 146.203 20.7438 145.347 21.2135C144.506 21.6831 143.729 22.3729 143.018 23.2828V37.9662H137.86V6.08984H143.018V14.7854Z" fill="#319C00"/>
<path d="M39.012 53.7433C38.7737 54.8988 38.4988 56.0914 38.1872 57.3211L36.8126 62.8825H34.5765L30.6816 50.4806H33.0736L34.549 55.4209C34.995 56.9719 35.3554 58.3747 35.6304 59.6291H35.6854C35.9541 58.282 36.2658 56.9009 36.6202 55.4858L37.8848 50.4806H40.1942L41.4589 55.4858C41.8132 56.8885 42.1248 58.2697 42.3936 59.6291H42.4486C42.7847 58.146 43.145 56.7433 43.53 55.4209L45.0054 50.4806H47.3972L43.5024 62.8825H41.2664L39.8918 57.3211C39.5802 56.0667 39.3052 54.8741 39.067 53.7433H39.012ZM54.298 58.3964C54.298 57.9205 54.243 57.5003 54.133 57.1357C54.023 56.7712 53.8703 56.4652 53.6748 56.2181C53.4792 55.9709 53.244 55.7855 52.9691 55.662C52.6943 55.5384 52.3949 55.4765 52.071 55.4765C51.7534 55.4765 51.4571 55.5384 51.1821 55.662C50.9132 55.7855 50.6811 55.9709 50.4857 56.2181C50.2901 56.4652 50.1374 56.7712 50.0274 57.1357C49.9175 57.5003 49.8625 57.9205 49.8625 58.3964C49.8625 58.8721 49.9175 59.2924 50.0274 59.6569C50.1374 60.0214 50.2901 60.3274 50.4857 60.5746C50.6872 60.8155 50.9225 61.001 51.1913 61.1306C51.4662 61.2543 51.7656 61.3161 52.0893 61.3161C52.4132 61.3161 52.7095 61.2543 52.9784 61.1306C53.2471 61.001 53.4792 60.8155 53.6748 60.5746C53.8703 60.3274 54.023 60.0214 54.133 59.6569C54.243 59.2924 54.298 58.8721 54.298 58.3964ZM56.5432 58.3964C56.5432 59.1008 56.4394 59.7435 56.2316 60.3243C56.0239 60.9051 55.7245 61.4026 55.3336 61.8167C54.9487 62.2306 54.4812 62.552 53.9314 62.7806C53.3815 63.0031 52.7676 63.1143 52.0893 63.1143C51.3929 63.1143 50.7666 63.0031 50.2107 62.7806C49.6608 62.552 49.1935 62.2306 48.8086 61.8167C48.4236 61.4026 48.1273 60.9051 47.9197 60.3243C47.718 59.7435 47.6173 59.1008 47.6173 58.3964C47.6173 57.6919 47.7211 57.0492 47.9288 56.4684C48.1366 55.8875 48.4329 55.3901 48.8178 54.976C49.2087 54.562 49.6792 54.2438 50.229 54.0213C50.7789 53.7926 51.3929 53.6784 52.071 53.6784C52.7676 53.6784 53.3907 53.7926 53.9406 54.0213C54.4965 54.2438 54.967 54.562 55.3519 54.976C55.7367 55.3901 56.03 55.8875 56.2316 56.4684C56.4394 57.0492 56.5432 57.6919 56.5432 58.3964ZM60.4655 55.1522H60.5021C60.6305 54.9667 60.7923 54.7845 60.9879 54.6052C61.1834 54.4261 61.4064 54.2685 61.6569 54.1325C61.9073 53.9966 62.1822 53.8885 62.4816 53.8082C62.7871 53.7216 63.1109 53.6784 63.4531 53.6784C63.7769 53.6784 64.0884 53.7154 64.3878 53.7895C64.6932 53.8637 64.9712 53.9812 65.2218 54.1418C65.4722 54.2963 65.6922 54.5002 65.8816 54.7535C66.077 55.0008 66.2298 55.2974 66.3398 55.6434C66.4009 55.835 66.4406 56.0451 66.4589 56.2737C66.4834 56.4962 66.4956 56.7556 66.4956 57.0523V62.8825H64.3236V57.3953C64.3236 57.1543 64.3145 56.9473 64.2962 56.7743C64.2779 56.6012 64.2442 56.4498 64.1954 56.3201C64.0854 56.0358 63.9174 55.8319 63.6913 55.7083C63.4714 55.5847 63.2025 55.5229 62.8849 55.5229C62.4633 55.5229 62.057 55.6249 61.666 55.8288C61.2811 56.0266 60.939 56.3169 60.6396 56.7001V62.8825H58.4678V53.9008H60.2639L60.4655 55.1522ZM72.6998 61.3625C72.9137 61.3625 73.1152 61.3346 73.3046 61.279C73.5002 61.2234 73.6834 61.1493 73.8544 61.0565C74.0256 60.9638 74.1752 60.8619 74.3036 60.7506C74.4379 60.6395 74.551 60.5313 74.6426 60.4263V56.1624C74.386 55.9524 74.0989 55.7793 73.7811 55.6434C73.4635 55.5012 73.1274 55.4303 72.7731 55.4303C72.5471 55.4303 72.3087 55.4765 72.0583 55.5692C71.8139 55.662 71.5878 55.8196 71.3802 56.042C71.1785 56.2645 71.0075 56.5734 70.867 56.9689C70.7325 57.3644 70.6653 57.8679 70.6653 58.4798C70.6653 59.382 70.8363 60.0863 71.1785 60.5931C71.5268 61.0998 72.0339 61.3562 72.6998 61.3625ZM68.42 58.5724C68.42 57.7876 68.527 57.0894 68.7409 56.4777C68.9547 55.8597 69.2448 55.3437 69.6115 54.9297C69.9841 54.5095 70.4087 54.1974 70.8853 53.9935C71.3617 53.7834 71.8566 53.6784 72.3698 53.6784C72.6081 53.6784 72.8341 53.7 73.048 53.7433C73.2618 53.7865 73.4635 53.8452 73.6529 53.9193C73.8422 53.9935 74.0195 54.0769 74.1844 54.1696C74.3493 54.2623 74.502 54.3581 74.6426 54.4569H74.6609C74.6548 54.3334 74.6487 54.1603 74.6426 53.9379C74.6426 53.7092 74.6426 53.4621 74.6426 53.1963V49.4609H76.8145V60.2131C76.8145 60.8063 76.8206 61.3161 76.8328 61.7425C76.845 62.1688 76.8572 62.5489 76.8694 62.8825H74.9084L74.8167 61.9278H74.7801C74.6517 62.0823 74.4959 62.2337 74.3127 62.382C74.1355 62.5303 73.9369 62.6601 73.7171 62.7713C73.5032 62.8764 73.2649 62.9598 73.0022 63.0216C72.7456 63.0834 72.4645 63.1143 72.159 63.1143C71.6765 63.1143 71.2121 63.0278 70.7661 62.8548C70.3262 62.6817 69.9291 62.416 69.5748 62.0576C69.2265 61.693 68.9454 61.2203 68.7317 60.6395C68.524 60.0524 68.42 59.3634 68.42 58.5724ZM83.9169 61.3439C84.3383 61.3439 84.7782 61.3007 85.2365 61.2142C85.6947 61.1276 86.159 61.0041 86.6295 60.8433V62.5952C86.3484 62.7188 85.9177 62.8362 85.3373 62.9474C84.7569 63.0586 84.1551 63.1143 83.5319 63.1143C82.9027 63.1143 82.3039 63.0339 81.7357 62.8733C81.1736 62.7065 80.6818 62.4407 80.2603 62.0761C79.8387 61.7115 79.5026 61.2389 79.2522 60.658C79.0079 60.0771 78.8856 59.3727 78.8856 58.5447C78.8856 57.7289 79.0018 57.0152 79.2339 56.4035C79.466 55.7917 79.7776 55.2851 80.1687 54.8833C80.5597 54.4817 81.0056 54.182 81.5066 53.9842C82.0137 53.7803 82.5361 53.6784 83.0737 53.6784C83.6358 53.6784 84.152 53.7649 84.6224 53.9379C85.099 54.111 85.5083 54.3828 85.8505 54.7535C86.1987 55.1243 86.4675 55.6033 86.6569 56.1903C86.8525 56.7712 86.9502 57.4602 86.9502 58.2573C86.9441 58.5663 86.9349 58.8288 86.9227 59.0451H81.1034C81.134 59.4592 81.2256 59.8145 81.3783 60.1111C81.531 60.4016 81.7296 60.6395 81.974 60.8248C82.2245 61.0041 82.5147 61.1368 82.8446 61.2234C83.1744 61.3038 83.5319 61.3439 83.9169 61.3439ZM83.0462 55.3931C82.7713 55.3931 82.5269 55.4457 82.3131 55.5507C82.0993 55.6495 81.9129 55.7886 81.754 55.9679C81.6013 56.1408 81.4791 56.3448 81.3875 56.5796C81.2958 56.8144 81.2347 57.0647 81.2042 57.3304H84.6957C84.6957 57.0647 84.6591 56.8144 84.5858 56.5796C84.5186 56.3448 84.4147 56.1408 84.2743 55.9679C84.1398 55.7886 83.9687 55.6495 83.761 55.5507C83.5594 55.4457 83.3211 55.3931 83.0462 55.3931ZM94.245 55.6434H94.0616C93.3957 55.6434 92.8092 55.7454 92.3021 55.9492C91.8011 56.147 91.4132 56.4529 91.1382 56.8669V62.8825H88.9664V53.9008H90.7625L90.9641 55.1522H91.0007C91.2574 54.6949 91.6087 54.3365 92.0547 54.0769C92.5068 53.8113 93.0474 53.6784 93.6768 53.6784C93.8967 53.6784 94.086 53.6907 94.245 53.7154V55.6434ZM95.6195 62.8825V49.4609H97.7915V62.8825H95.6195ZM105.499 61.9278H105.462C105.34 62.0576 105.193 62.1905 105.022 62.3263C104.851 62.4623 104.656 62.5921 104.435 62.7157C104.216 62.8331 103.971 62.9289 103.702 63.0031C103.434 63.0772 103.143 63.1143 102.832 63.1143C102.41 63.1143 102.016 63.0463 101.65 62.9103C101.283 62.7806 100.968 62.5921 100.706 62.345C100.443 62.0915 100.235 61.7888 100.083 61.4365C99.9359 61.0782 99.8626 60.6796 99.8626 60.2408C99.8626 59.7589 99.9481 59.3263 100.119 58.9432C100.296 58.5601 100.541 58.2356 100.852 57.97C101.164 57.7042 101.537 57.5033 101.97 57.3675C102.404 57.2254 102.884 57.1543 103.409 57.1543C103.794 57.1543 104.148 57.179 104.472 57.2284C104.796 57.2778 105.08 57.3365 105.325 57.4045V57.043C105.325 56.8329 105.288 56.6321 105.215 56.4405C105.147 56.2428 105.034 56.0698 104.875 55.9215C104.723 55.767 104.521 55.6464 104.271 55.56C104.02 55.4673 103.715 55.4209 103.354 55.4209C102.914 55.4209 102.474 55.4704 102.035 55.5692C101.595 55.6682 101.118 55.8165 100.605 56.0141V54.2994C101.051 54.1017 101.524 53.9503 102.025 53.8452C102.526 53.7402 103.052 53.6845 103.602 53.6784C104.249 53.6784 104.814 53.7587 105.297 53.9193C105.786 54.08 106.192 54.3024 106.516 54.5867C106.846 54.8648 107.09 55.1954 107.249 55.5786C107.414 55.9617 107.496 56.3787 107.496 56.8298V60.2131C107.496 60.8063 107.502 61.3161 107.515 61.7425C107.527 62.1688 107.539 62.5489 107.551 62.8825H105.59L105.499 61.9278ZM105.325 59.0544C105.117 59.005 104.879 58.9617 104.61 58.9247C104.341 58.8814 104.069 58.8598 103.794 58.8598C103.262 58.8598 102.841 58.9679 102.529 59.1842C102.224 59.3943 102.071 59.7187 102.071 60.1574C102.071 60.3614 102.105 60.5405 102.172 60.695C102.245 60.8433 102.34 60.9669 102.456 61.0659C102.578 61.1647 102.719 61.2389 102.878 61.2882C103.036 61.3377 103.205 61.3625 103.382 61.3625C103.602 61.3625 103.809 61.3346 104.005 61.279C104.2 61.2173 104.381 61.1431 104.546 61.0565C104.71 60.9638 104.857 60.8619 104.985 60.7506C105.12 60.6395 105.233 60.5313 105.325 60.4263V59.0544ZM111.932 55.1522H111.969C112.097 54.9667 112.259 54.7845 112.454 54.6052C112.65 54.4261 112.873 54.2685 113.123 54.1325C113.374 53.9966 113.649 53.8885 113.948 53.8082C114.253 53.7216 114.577 53.6784 114.92 53.6784C115.243 53.6784 115.555 53.7154 115.854 53.7895C116.16 53.8637 116.438 53.9812 116.688 54.1418C116.939 54.2963 117.159 54.5002 117.348 54.7535C117.544 55.0008 117.696 55.2974 117.807 55.6434C117.868 55.835 117.907 56.0451 117.925 56.2737C117.95 56.4962 117.961 56.7556 117.961 57.0523V62.8825H115.79V57.3953C115.79 57.1543 115.781 56.9473 115.763 56.7743C115.744 56.6012 115.711 56.4498 115.662 56.3201C115.552 56.0358 115.384 55.8319 115.158 55.7083C114.938 55.5847 114.669 55.5229 114.351 55.5229C113.93 55.5229 113.523 55.6249 113.132 55.8288C112.748 56.0266 112.405 56.3169 112.106 56.7001V62.8825H109.934V53.9008H111.73L111.932 55.1522ZM124.167 61.3625C124.38 61.3625 124.582 61.3346 124.771 61.279C124.967 61.2234 125.15 61.1493 125.321 61.0565C125.492 60.9638 125.641 60.8619 125.77 60.7506C125.904 60.6395 126.018 60.5313 126.109 60.4263V56.1624C125.852 55.9524 125.565 55.7793 125.247 55.6434C124.93 55.5012 124.594 55.4303 124.239 55.4303C124.013 55.4303 123.775 55.4765 123.525 55.5692C123.28 55.662 123.055 55.8196 122.847 56.042C122.645 56.2645 122.474 56.5734 122.333 56.9689C122.198 57.3644 122.132 57.8679 122.132 58.4798C122.132 59.382 122.303 60.0863 122.645 60.5931C122.994 61.0998 123.5 61.3562 124.167 61.3625ZM119.886 58.5724C119.886 57.7876 119.993 57.0894 120.208 56.4777C120.421 55.8597 120.711 55.3437 121.078 54.9297C121.45 54.5095 121.875 54.1974 122.352 53.9935C122.828 53.7834 123.323 53.6784 123.836 53.6784C124.074 53.6784 124.3 53.7 124.514 53.7433C124.729 53.7865 124.93 53.8452 125.119 53.9193C125.309 53.9935 125.486 54.0769 125.651 54.1696C125.816 54.2623 125.968 54.3581 126.109 54.4569H126.127C126.121 54.3334 126.115 54.1603 126.109 53.9379C126.109 53.7092 126.109 53.4621 126.109 53.1963V49.4609H128.28V60.2131C128.28 60.8063 128.288 61.3161 128.299 61.7425C128.311 62.1688 128.324 62.5489 128.336 62.8825H126.374L126.283 61.9278H126.246C126.119 62.0823 125.963 62.2337 125.78 62.382C125.602 62.5303 125.403 62.6601 125.184 62.7713C124.969 62.8764 124.731 62.9598 124.468 63.0216C124.212 63.0834 123.931 63.1143 123.626 63.1143C123.143 63.1143 122.678 63.0278 122.232 62.8548C121.792 62.6817 121.396 62.416 121.042 62.0576C120.693 61.693 120.412 61.2203 120.198 60.6395C119.991 60.0524 119.886 59.3634 119.886 58.5724Z" fill="white"/>
<path d="M30.4989 57.543H4.69238" stroke="white" stroke-opacity="0.5"/>
<path d="M157.185 57.543H131.379" stroke="white" stroke-opacity="0.5"/>
</svg>
